<svg xmlns="http://www.w3.org/2000/svg" xmlns:xlink="http://www.w3.org/1999/xlink" width="194.948" height="24.098" viewBox="0 0 51.58 6.376">
  <defs>
    <linearGradient id="a">
      <stop offset="0" style="stop-color:red;stop-opacity:0"/>
      <stop offset="0" style="stop-color:#2563eb;stop-opacity:.41568628"/>
      <stop offset="1" style="stop-color:#4338ca;stop-opacity:1"/>
    </linearGradient>
    <linearGradient xlink:href="#a" id="b" x1=".192" x2="50.772" y1="50.082" y2="50.082" gradientTransform="translate(-.192 -33.619)" gradientUnits="userSpaceOnUse"/>
    <clipPath id="c" clipPathUnits="userSpaceOnUse">
      <path d="M3.018 0A3.012 3.012 0 0 0 0 3.02a3.012 3.012 0 0 0 3.018 3.018h44.543a3.012 3.012 0 0 0 3.019-3.018A3.012 3.012 0 0 0 47.56 0zm0 13.445A3.012 3.012 0 0 0 0 16.463a3.012 3.012 0 0 0 3.018 3.019h44.543a3.012 3.012 0 0 0 3.019-3.019 3.012 3.012 0 0 0-3.019-3.018zm0 13.444A3.012 3.012 0 0 0 0 29.908a3.012 3.012 0 0 0 3.018 3.018h44.543a3.012 3.012 0 0 0 3.019-3.018 3.012 3.012 0 0 0-3.019-3.019z" style="fill:red;stroke-width:.468818"/>
    </clipPath>
  </defs>
  <path d="M0 0h50.58l.192 7.376L0 6.799Z" clip-path="url(#c)" style="fill:url(#b);stroke-width:1.73185" transform="translate(.192 .192)"/>
</svg>
