<svg xmlns="http://www.w3.org/2000/svg" width="15" height="15">
  <path d="M3.67 2.51c-.292.046-.483.22-.684.42-.346.347-.633.73-.404 1.233.15.33.503.588.755.84L4.9 6.566l.704.704c.054.054.215.165.191.254-.023.087-.15.173-.21.235l-.567.566-1.739 1.74c-.269.268-.64.537-.747.918-.12.427.108.748.395 1.036.383.383.898.692 1.407.299.298-.23.554-.54.82-.807l1.563-1.564.567-.566c.051-.052.15-.194.235-.172.08.02.158.135.215.19l.507.509 1.954 1.955c.358.358.692.74 1.25.612.237-.055.402-.232.567-.397.35-.352.638-.744.395-1.251-.154-.32-.5-.573-.747-.82l-1.58-1.585-.685-.684c-.054-.054-.215-.165-.19-.254.021-.087.15-.173.21-.235l.566-.566 1.74-1.74c.268-.268.64-.537.746-.918.12-.427-.107-.748-.395-1.036-.393-.39-.889-.7-1.408-.3-.299.23-.554.543-.82.809L8.28 5.062l-.566.566c-.052.052-.15.194-.235.172-.08-.02-.158-.135-.215-.191l-.506-.51-1.875-1.874c-.333-.333-.68-.8-1.212-.715z" style="fill:#f34335;stroke:none;stroke-width:.0205573"/>
</svg>
