<svg xmlns="http://www.w3.org/2000/svg" xmlns:xlink="http://www.w3.org/1999/xlink" xml:space="preserve" width="142.051" height="60.473" viewBox="0 0 37.584 16">
  <defs>
    <linearGradient id="a">
      <stop offset="0" style="stop-color:#60a5fa;stop-opacity:0"/>
      <stop offset="0" style="stop-color:#4ea6ff;stop-opacity:.47843137"/>
      <stop offset="1" style="stop-color:#3b82f6;stop-opacity:1"/>
    </linearGradient>
    <linearGradient xlink:href="#a" id="b" x1="0" x2="37.583" y1="8" y2="8" gradientUnits="userSpaceOnUse"/>
  </defs>
  <path d="M14.846 0a.169.169 0 0 0-.065.014c-.234.098-.45.415-.655.583a9.038 9.038 0 0 1-1.28.862c-2.13 1.225-4.804 2.004-5.64 4.947-.327 1.147-.315 2.418-.093 3.59.085.446.194.883.32 1.317.038.133.17.373.136.512-.064.257-.375.555-.514.772a9.92 9.92 0 0 0-.087.137 7.523 7.523 0 0 0-.527-.969c-.1-.155-.325-.37-.37-.555-.025-.1.07-.274.098-.37.09-.312.169-.626.23-.948.16-.843.168-1.759-.066-2.585C5.73 5.188 3.804 4.626 2.27 3.744a6.55 6.55 0 0 1-.922-.62c-.146-.121-.302-.35-.471-.42-.177-.074-.24.274-.282.406a12.906 12.906 0 0 0-.396 1.542c-.366 1.844-.306 4.001.846 5.477.717.919 1.661 1.329 2.7 1.477.239.034.476.041.716.041.072 0 .22.027.25-.077.033-.115-.108-.232-.165-.303a16.185 16.185 0 0 1-.53-.711C3.394 9.684 2.811 8.72 2.368 7.71c-.124-.28-.25-.561-.352-.853-.012-.036-.125-.324-.012-.28.107.042.209.296.274.398a51.87 51.87 0 0 0 .697 1.067c.921 1.366 2 2.631 2.764 4.126a7.844 7.844 0 0 1 .58 1.494c.012.045.023.123.037.206-.116.251-.223.508-.32.77-.082.223-.264.576-.252.823.006.138.144.203.236.255.243.138.687.355.963.262.166-.056.195-.577.24-.747.2-.726.469-1.419.805-2.075 1.064-2.076 2.56-3.833 3.84-5.73.329-.488.65-.982.968-1.481.09-.141.231-.495.38-.553.156-.06 0 .34-.017.389-.143.405-.317.795-.488 1.185-.615 1.4-1.426 2.741-2.29 3.951-.238.335-.479.67-.734.988-.08.1-.275.26-.23.42.042.145.247.107.346.107.334 0 .664-.01.995-.056 1.443-.206 2.755-.775 3.75-2.051 1.6-2.05 1.683-5.046 1.175-7.607a18.253 18.253 0 0 0-.55-2.14C15.12.412 15.043 0 14.846 0Zm3.258 1.617v6.367c0 .973.206 1.687.62 2.14.4.43 1 .655 1.8.672v.001h1.086c.56 0 1.007-.118 1.34-.353.334-.24.574-.569.72-.987.147-.418.22-.893.22-1.427a7.62 7.62 0 0 0-.066-.98c-.045-.342-.105-.69-.18-1.046l-1.16.293c.062.334.12.665.173.993a5.8 5.8 0 0 1 .08.927c0 .396-.08.722-.24.98-.155.258-.456.387-.9.387h-.973c-.467 0-.815-.109-1.047-.327-.23-.218-.346-.64-.346-1.267V1.617Zm7.466 0v9.173h1.127V1.617ZM22.424 2.93l-.967.966.967.967.967-.967zm8.206 2.993a1.81 1.81 0 0 0-.953.253c-.28.17-.518.394-.713.674a3.27 3.27 0 0 0-.44.913 3.446 3.446 0 0 0-.147.986c0 .694.204 1.211.613 1.554.414.342 1.02.513 1.82.513.17 0 .365-.02.587-.06.222-.04.418-.087.587-.14a2.453 2.453 0 0 1-.554 1.22c-.297.36-.697.662-1.2.907-.497.244-1.089.433-1.773.566l.393 1.06c.947-.182 1.736-.48 2.367-.893a3.906 3.906 0 0 0 1.427-1.573c.32-.636.48-1.385.48-2.247 0-.47-.051-.929-.154-1.373a4.346 4.346 0 0 0-.46-1.2 2.472 2.472 0 0 0-.78-.847 1.926 1.926 0 0 0-1.1-.313zm-.013 1.2c.213 0 .4.05.56.153.165.098.304.246.42.446a2.6 2.6 0 0 1 .273.728c.071.284.118.613.14.986a4.31 4.31 0 0 1-.586.133c-.2.027-.393.04-.58.04-.453 0-.791-.069-1.014-.207-.222-.137-.333-.368-.333-.692 0-.2.031-.423.093-.667a1.59 1.59 0 0 1 .34-.647c.165-.182.394-.273.687-.273zm6.486.04-1.106.373c.147.431.26.855.34 1.273.084.414.127.81.127 1.187 0 .538-.098 1.03-.294 1.474a2.755 2.755 0 0 1-.933 1.14c-.431.32-1.009.557-1.733.713l.393 1.06c.849-.165 1.544-.47 2.087-.914a3.95 3.95 0 0 0 1.206-1.613 5.315 5.315 0 0 0 .393-2.06 6.96 6.96 0 0 0-.126-1.3 8.695 8.695 0 0 0-.354-1.333z" style="fill:url(#b);fill-opacity:1;stroke:none;stroke-width:.592787"/>
</svg>
