<svg xmlns="http://www.w3.org/2000/svg" xmlns:xlink="http://www.w3.org/1999/xlink" width="492.387" height="216.334" viewBox="0 0 130.277 57.238">
  <defs>
    <linearGradient id="a">
      <stop offset="0" style="stop-color:#1a237e;stop-opacity:1"/>
      <stop offset="1" style="stop-color:#0d47a1;stop-opacity:.41568628"/>
      <stop offset="1" style="stop-color:#00f200;stop-opacity:0"/>
    </linearGradient>
    <linearGradient xlink:href="#a" id="c" x1="144.068" x2="13.434" y1="64.764" y2="64.764" gradientTransform="matrix(.99727 0 0 .98658 7.1 4.827)" gradientUnits="userSpaceOnUse"/>
    <clipPath id="b" clipPathUnits="userSpaceOnUse">
      <path d="M27.6 40.103a7.104 7.104 0 0 0-7.103 7.101V90.24a7.104 7.104 0 0 0 7.104 7.102h116.07a7.104 7.104 0 0 0 7.104-7.102V47.204a7.104 7.104 0 0 0-7.104-7.101zm0 1.572h116.071a5.5 5.5 0 0 1 5.532 5.53v43.034a5.5 5.5 0 0 1-5.532 5.53H27.601a5.5 5.5 0 0 1-5.531-5.53V47.204a5.5 5.5 0 0 1 5.53-5.529zm70.916 16.307v17.713h1.53V57.982Zm-11.29.605-1.385 1.386 1.386 1.385 1.386-1.385zm-44.992.206v9.8c0 1.499.318 2.597.954 3.295.618.664 1.541 1.009 2.77 1.035v.002h1.674c.862 0 1.55-.18 2.063-.544.513-.369.882-.876 1.108-1.519.226-.643.339-1.375.339-2.196 0-.48-.034-.982-.103-1.509a20.38 20.38 0 0 0-.277-1.61l-1.786.45c.096.514.185 1.024.267 1.53.082.506.123.981.123 1.426 0 .61-.123 1.112-.37 1.51-.239.396-.7.594-1.385.594h-1.498c-.719 0-1.256-.168-1.611-.503-.356-.335-.534-.985-.534-1.95v-9.811zm6.65 2.021-1.488 1.488 1.488 1.489 1.488-1.489zm36.588.37-1.386 1.385 1.386 1.386 1.385-1.386zm3.51 0-1.386 1.385 1.386 1.386 1.386-1.386zm-23.544 1.672-1.426 1.427 1.426 1.447 1.437-1.447zm3.408 0-1.427 1.427 1.427 1.447 1.436-1.447zm42.489.196-.811 1.621c1.013.555 1.83 1.085 2.453 1.59.623.5 1.077.98 1.365 1.438.287.458.43.903.43 1.334 0 .451-.143.828-.43 1.129-.288.301-.722.53-1.304.687-.581.15-1.317.226-2.206.226-.335 0-.698-.024-1.088-.072a17.317 17.317 0 0 1-1.242-.205v1.858c.37.082.763.143 1.18.184.425.041.86.062 1.304.062 1.286 0 2.336-.144 3.15-.431.815-.294 1.417-.732 1.807-1.314.39-.581.585-1.3.585-2.155 0-.54-.106-1.067-.318-1.58a5.584 5.584 0 0 0-.965-1.53c-.424-.499-.965-.985-1.622-1.457a17.72 17.72 0 0 0-2.288-1.385zm10.694 2.37c-.547 0-1.036.13-1.467.39-.432.26-.798.606-1.099 1.037a5.04 5.04 0 0 0-.677 1.406 5.306 5.306 0 0 0-.226 1.519c0 1.067.315 1.865.944 2.391.637.527 1.57.79 2.802.79.26 0 .561-.03.903-.092.343-.062.643-.133.903-.215a3.774 3.774 0 0 1-.851 1.877c-.459.555-1.075 1.02-1.848 1.396-.766.377-1.676.668-2.73.873l.606 1.631c1.457-.28 2.671-.738 3.643-1.375.978-.63 1.71-1.436 2.196-2.422.493-.978.74-2.131.74-3.458 0-.726-.08-1.43-.236-2.115a6.692 6.692 0 0 0-.709-1.847 3.805 3.805 0 0 0-1.2-1.303c-.48-.322-1.044-.483-1.694-.483zm16.226 0c-.547 0-1.037.13-1.468.39a3.61 3.61 0 0 0-1.098 1.037 5.04 5.04 0 0 0-.677 1.406 5.305 5.305 0 0 0-.226 1.519c0 1.067.315 1.865.944 2.391.636.527 1.57.79 2.802.79.26 0 .561-.03.903-.092a7.45 7.45 0 0 0 .903-.215 3.774 3.774 0 0 1-.852 1.877c-.458.555-1.074 1.02-1.847 1.396-.766.377-1.676.668-2.73.873l.606 1.631c1.457-.28 2.671-.738 3.643-1.375.978-.63 1.71-1.436 2.197-2.422.492-.978.738-2.131.738-3.458 0-.726-.078-1.43-.236-2.115a6.692 6.692 0 0 0-.708-1.847 3.804 3.804 0 0 0-1.2-1.303c-.48-.322-1.044-.483-1.694-.483zm-48.586.124-1.786.451c.096.513.185 1.023.268 1.53.082.506.123.98.123 1.426 0 .609-.124 1.112-.37 1.509-.24.396-.701.595-1.385.595H84.61c-.438 0-.808-.075-1.109-.226a1.617 1.617 0 0 1-.688-.667c-.164-.301-.26-.67-.287-1.109l-.164-2.4-1.714.204c.028.294.048.589.062.883.02.294.03.605.03.934 0 .807-.188 1.406-.564 1.796-.37.39-.988.585-1.857.585h-1.027c-.663 0-1.163-.171-1.498-.513-.329-.342-.513-.839-.554-1.489l-.175-2.4-1.714.204c.027.288.048.592.061.913.021.322.032.623.032.904 0 .602-.202 1.078-.606 1.426-.404.343-.992.589-1.765.74-.767.143-1.694.215-2.782.215h-1.714c-.992 0-1.86-.041-2.606-.124-.746-.088-1.369-.24-1.868-.451-.493-.22-.866-.52-1.119-.903s-.38-.876-.38-1.478c0-.308.034-.633.103-.975a7.6 7.6 0 0 1 .277-.965l-1.59-.595a9.065 9.065 0 0 0-.421 1.304 6.231 6.231 0 0 0-.154 1.385c0 .862.16 1.59.482 2.186.329.595.814 1.077 1.457 1.447.65.363 1.458.626 2.423.79.971.165 2.103.247 3.396.247h1.714c1.574 0 2.802-.14 3.685-.421.89-.288 1.618-.76 2.186-1.417.321.644.729 1.112 1.221 1.407.462.265 1.04.408 1.735.428v.003h1.201c.657 0 1.286-.127 1.888-.38a3.26 3.26 0 0 0 1.457-1.19c.185.335.407.619.667.852.26.232.575.41.944.533.327.11.707.17 1.14.182v.003h2.124c.862 0 1.55-.18 2.063-.543.513-.37.883-.876 1.109-1.52.226-.643.338-1.375.338-2.196 0-.479-.034-.981-.103-1.508a20.38 20.38 0 0 0-.277-1.612zm-53.809.02c-.533 0-1.01.099-1.427.297a3.218 3.218 0 0 0-1.108.853c-.322.37-.605.817-.852 1.344a12.096 12.096 0 0 0-.656 1.796c-.623.116-1.112.36-1.468.729-.356.362-.62.824-.79 1.385a8.705 8.705 0 0 0-.318 1.868c-.042.691-.062 1.42-.062 2.186 0 .561.01 1.115.03 1.663.021.554.048 1.146.083 1.775h1.765a75.437 75.437 0 0 0-.082-1.21c-.02-.356-.038-.719-.051-1.088a65.54 65.54 0 0 1-.01-1.243c0-.787.016-1.447.05-1.98.035-.527.1-.945.196-1.253.096-.314.232-.54.41-.677.178-.136.41-.205.698-.205.212 0 .476.065.79.195a31 31 0 0 1 1.037.452c.383.164.78.311 1.19.441.417.13.828.195 1.232.195.712 0 1.297-.14 1.755-.42.465-.281.81-.661 1.037-1.14.225-.486.338-1.037.338-1.652 0-.842-.167-1.584-.503-2.228A3.853 3.853 0 0 0 37.8 66.12c-.568-.37-1.214-.554-1.94-.554zm86.148 1.704c.329 0 .616.078.862.236.254.15.469.38.647.688.178.3.318.673.421 1.118.11.438.181.944.216 1.52a6.643 6.643 0 0 1-.904.204 6.767 6.767 0 0 1-.893.062c-.698 0-1.218-.106-1.56-.319-.342-.212-.513-.567-.513-1.067 0-.308.048-.65.144-1.026.102-.383.277-.715.523-.996.253-.28.606-.42 1.057-.42zm16.226 0c.329 0 .616.078.862.236.253.15.469.38.647.688.178.3.318.673.421 1.118.11.438.181.944.215 1.52a6.642 6.642 0 0 1-.903.204 6.767 6.767 0 0 1-.893.062c-.698 0-1.218-.106-1.56-.319-.342-.212-.513-.567-.513-1.067 0-.308.048-.65.144-1.026.103-.383.277-.715.523-.996.253-.28.606-.42 1.057-.42zm-6.24.061-1.703.575c.225.664.4 1.317.523 1.96a9.14 9.14 0 0 1 .195 1.827c0 .828-.15 1.584-.452 2.268-.294.684-.773 1.27-1.436 1.755-.664.493-1.554.859-2.669 1.098l.606 1.632c1.307-.253 2.377-.722 3.212-1.406a6.078 6.078 0 0 0 1.858-2.483c.403-.972.605-2.03.605-3.172 0-.65-.064-1.317-.194-2.001a13.388 13.388 0 0 0-.545-2.053zm-96.093.052c.397 0 .746.109 1.047.328.301.219.537.517.708.893.171.37.257.79.257 1.262 0 .418-.117.753-.35 1.006-.225.246-.567.37-1.026.37-.164 0-.386-.041-.666-.124a14.27 14.27 0 0 1-.986-.369 62.28 62.28 0 0 1-1.324-.564c.11-.363.233-.712.37-1.047.143-.336.304-.633.482-.893.185-.267.397-.476.636-.627.247-.157.53-.235.852-.235zm43.33 7.112-1.488 1.488 1.489 1.488 1.488-1.488z" style="font-size:21.0188px;font-family:Vazirmatn;-inkscape-font-specification:Vazirmatn;fill:#4ea6ff;stroke-width:.875784"/>
    </clipPath>
  </defs>
  <rect width="130.277" height="57.238" x="20.498" y="40.103" clip-path="url(#b)" ry="0" style="fill:url(#c);stroke:none;stroke-width:2.52905;stroke-dasharray:none;stroke-opacity:1" transform="translate(-20.497 -40.103)"/>
</svg>
