<svg xmlns="http://www.w3.org/2000/svg" width="20" height="20"><defs><clipPath id="a" clipPathUnits="userSpaceOnUse"><path d="M193.079 241.591h308.538v283.312H193.079z" style="fill:#0193de"/></clipPath></defs><path d="M208.684 26.362c9.21 0 28.744 3.731 36.675-1.028 7.446-4.467 13.854-18.769 18.659-25.972 15.626-23.427 32.074-59.59 57.666-73.11 19.376-10.234 44.86-6.89 66-6.89 6.703 0 17.498 2.065 23.7-.603 8.132-3.498 17.98-20.815 22.3-28.397h-76c-14.135 0-29.457-1.769-43 3.09-16.782 6.022-29.786 21.209-40.348 34.91-14.587 18.921-27.409 39.136-40.652 59-8.403 12.605-18.518 25.298-25 39m63 0h77c12.799 0 27.757 2.158 40-2.08 37.504-12.977 60.667-61.92 81.334-92.92 8.851-13.277 19.842-26.574 26.666-41-9.328 0-28.61-3.698-36.7 1.028-7.551 4.412-13.153 17.827-17.97 24.972-9.471 14.052-19.26 27.902-28.663 42-8.32 12.475-15.955 25.033-29.667 32.215-19.736 10.338-44.48 6.785-66 6.785-6.738 0-17.462-2.044-23.71.604-7.997 3.388-18.42 20.814-22.29 28.396m193-52 35.675-.603 16.35-22.397 40.975-61c-9.46 0-28.552-3.674-36.815 1.028-6.488 3.692-11.057 14.976-15.326 20.972-9.57 13.439-18.707 27.273-27.859 41-4.408 6.613-10.492 13.437-13 21m-222-77.442c-20.791 5.463-10.377 37.688 10 31.804 21.077-6.086 11.155-37.363-10-31.804m109 45.171c-21.426.659-20.322 33.628 1 33.216 21.729-.421 20.89-33.888-1-33.216m-205 85.271c9.461 0 28.553 3.674 36.816-1.028 6.717-3.822 11.962-15.639 16.184-21.972 8.7-13.05 17.52-26.032 26.344-39 4.747-6.975 11.069-13.88 13.656-22-9.238 0-27.738-3.562-35.815 1.028-7.349 4.176-12.913 17.064-17.518 23.972-13.048 19.572-28.224 38.447-39.667 59m311-39.493c-21.975 3.156-16.608 36.924 5 33.163 20.945-3.646 16.023-36.181-5-33.163m34 58.493c19.308-5.28 50.142-16.212 62-33-10.432 3.797-19.822 10.607-30 15.14-10.6 4.72-24.97 8.117-32 17.86m50-14c-3.466 5.518-4.794 9.032 0 14h1c4.201-5.263 5.123-10.017-1-14m-5 13c-.93 1.32-1.944 2.565-2.623 4.045-6.06 13.195 16.105 6.227 2.623-4.045m10 0c-.767 1.322-1.623 2.624-2.21 4.045-5.714 13.834 17.18 3.346 2.21-4.045m-317 2-6.742 30.852-20.257 8.667-18.185 22.481-19.816 18c16.554-2.987 24.207-19.3 35.04-29.956 5.965-5.868 12.68-3.807 18.87-7.937 10.7-7.14 15.959-30.504 11.09-42.107m-56 3c-.93 1.32-1.944 2.565-2.623 4.045-6.163 13.418 16.453 6.493 2.623-4.045m321 2c-2.075 5.567-3.922 11.006-3.996 17-.056 4.575 1.37 11.872-1.746 15.683-1.812 2.217-4.94 2.434-7.258 3.912-15.543 9.91-27.6 11.405-46 11.405-7.627 0-18.393 1.013-21-8h-2c0 4.117-1.095 10.176 1.028 13.867 5.287 9.193 26.557 4.882 34.972 3.967 15.009-1.63 20.444-7.165 32.09-15.234 3.815-2.644 7.702-2.221 10.377-6.644 4.14-6.844 3.361-15.328 3.548-22.956.107-4.387 1.712-8.846-.015-13m-128 14c-3.134 9.264-11.74 34.31-3.566 42.682 6.64 6.8 20.152-13.958 19.882-.706-.034 1.669-.249 3.354-.316 5.024h1c1.702-5.031 3.447-10.862 7.469-14.57 5.613-5.177 12.534-5.482 13.531-14.43h-1l-16 14h-1c-6.976-7.089-11.862 6.199-18.771 1.243-9.13-6.55 1.468-24.477-1.229-33.243m185 3L537.67 80.338l-16.946 7.21-33.04 35.814v1c16.676-4.813 20.656-19.828 33.09-29.2 6.743-5.08 13.602-2.535 18.95-9.804 3.535-4.807 13.794-9.291 11.96-15.996m-308 2-10 37c8.079-6.925 12.462-26.75 10-37m100 12v1c-7.418 5.69-19.22 21.108-5 26-3.044 10.25-21.508 21.853-27.257 6.996-3.315-8.564 3.673-19.066 6.257-26.996-4.396 3-6.176 10.115-7.946 15-1.494 4.126-2.75 8.592-2.95 13-.122 2.7.282 5.432 1.12 8 9.156 28.03 52.128-18.16 27.776-29 4.5-6.37 12.715-8.97 16.837-15.184 2.376-3.583.862-7.88-3.747-8.273-4.129-.352-7.703 6.631-5.09 9.457m105.195-8.654c-5.319 1.66-4.351 13.036 1.582 10.478 4.233-1.825 3.796-12.156-1.582-10.478m-10.809.83c-4.398 1.986-4.595 12.232 1.51 10.479 5.646-1.622 4.075-13-1.51-10.479m-142.386 5.824c-3.362 3.243-8.127 2.105-11.671 5.395-4.427 4.11-5.76 10.669-11.333 13.773-8.888 4.952-16.568.754-21.996 12.832l18-3.183 9.17-7.753 7.632-2.537.1-8.885 6.77-1.91 5.328-7.732h-2m-124 2-6.928 15.96-11.072 12.04c11.572-1.709 23.006-15.727 18-28m123 27c-.69 1.662-1.576 3.324-2.16 5.025-4.783 13.94 19.034-.13 2.16-5.025m-85 4c-3.866 5.48-5.345 9.182 0 14h1c4.286-5.37 4.746-9.622-1-14m59 12c-1.349 2.579-3.872 5.9-3.183 8.98 1.452 6.484 6.74 3.113 8.183-.98 9.762 8.998 14.536-4.57 5-8l-3 8h-1l-6-8m83 131.425c-23.43 3.085-44.445 9.545-64 23.296-13.372 9.403-24.787 21.349-33.388 35.28-42.798 69.318-10.915 166.346 69.388 190.279 18.608 5.545 37.785 7.026 57 4.438 17.823-2.401 34.752-8.915 50-18.33 12.527-7.734 23.383-17.751 32.349-29.388 54.059-70.16 20.482-176.39-65.349-201-14.51-4.16-30.932-6.56-46-4.575m-3 13.86c98.196-11.743 165.568 105.758 103.55 183.715-8.793 11.053-19.275 20.632-31.55 27.716-13.539 7.815-28.442 13.086-44 14.998-82.559 10.145-148.965-70.833-122.666-149.714 4.086-12.258 10.053-23.864 18.116-34 8.727-10.97 19.357-20.553 31.55-27.572 13.899-8 29.068-13.237 45-15.142M301.7 352.104c-11.211 4.403-4.084 21.565 6.969 17.36 11.38-4.328 4.96-22.043-6.97-17.36m-6.015 66.258c4.835 0 13.409 1.651 17.61-1.028 3.993-2.546 6.507-9.893 8.646-13.972 5.953-11.35 12.171-28.032 23.744-34.633 9.007-5.136 21.054-3.367 31-3.367 3.658 0 9.25 1.023 12.483-1.028 4.011-2.545 6.702-8.766 8.517-12.972h-39c-6.462 0-13.89-1.014-20 1.483-6.57 2.685-11.573 8.865-15.56 14.517-10.093 14.304-22.59 34.167-27.44 51m31 0c16.91 0 42.1 4.703 58-1.133 17.511-6.427 27.38-32.504 35.245-47.867 3.042-5.942 6.897-11.549 8.755-18-4.834 0-13.41-1.651-17.61 1.028-3.718 2.372-6.012 9.198-8.084 12.972-6.281 11.437-12.322 29.063-24.306 35.583-8.786 4.78-20.38 3.417-30 3.417-3.89 0-10.053-1.148-13.482 1.028-4.011 2.546-6.703 8.766-8.518 12.972m92-26 17.61-.603 6.966-10.397 16.424-30-17.62.604-7.688 11.396-15.692 29m-57.999-16.387c-12.18 2.892-8.117 21.116 3.995 18.354 11.36-2.59 7.485-21.08-3.995-18.354m-96 42.387 17.62-.603 7.24-10.397 16.14-30-17.61.604-6.966 10.396-16.425 30m153.004-18.412c-11.79 3.074-7.121 21.094 4.992 18.094 11.703-2.9 6.507-21.092-4.992-18.094M187.685 543.132c-12.35.553-11.22 19.68 1 19.077 12.184-.6 11.413-19.633-1-19.077m81 56.23c0-6.823 3.248-24.997-1.028-30.396-2.34-2.955-9.657-1.604-12.973-1.604-11.264 0-29.351-3.512-36.89 7.094-4.142 5.826-3.11 13.144-3.11 19.906v42c4.838-2.014 16.06-5.422 18.397-10.39 3.72-7.908.603-23.881.603-32.61 0-4.157-1.095-10.46 3.148-12.972 3.631-2.15 9.78-1.028 13.852-1.028v32c12.976 0 36.046 4.437 46.957-3.649 7.047-5.222 7.043-13.436 7.043-21.35v-44c-5.309 1.529-17.052 5.823-19.396 11.212-3.608 8.293-.604 23.76-.604 32.787 0 3.52 1.119 9.68-2.318 11.972-3.357 2.24-9.812 1.028-13.682 1.028m52 14 17.973-9.39 1.027-16.61v-43c-5.358.955-14.913 4.572-17.972 9.39-2.55 4.015-1.028 12.022-1.028 16.61v43m223-48c-4.205 2.774-13.202 5.704-15.396 10.39-3.708 7.917 5.088 23.996-8.604 24.59-2.657.116-5.34.02-8 .02 0-9.245 1.676-20.535-5.213-27.895-11.09-11.846-42.83-6.462-57.787-6.09-5.851.146-11.676 1.642-15.775 6.09-6.322 6.86-4.225 18.313-4.225 26.895-18.407-.002-13-18.967-13-33-13.386 0-40.274-5.203-49.35 7.043-7.232 9.757-3.65 28.433-3.65 39.957 5.192-1.889 15.919-5.603 18.973-10.39 5.067-7.944-5.449-24.136 9.026-24.594 2.33-.074 4.67-.016 7.001-.016 0 9.219-1.774 21.442 5.34 28.67 4.743 4.819 11.298 5.32 17.66 5.33 14.796.024 44.837 5.769 55.776-6.105 6.32-6.86 4.224-18.31 4.224-26.895 18.407.002 13 18.967 13 33 13.649 0 42.141 5.726 49.544-9 3.075-6.12 1.456-15.33 1.456-22 0-5.08.98-11.28-1-16m-364 71 17.973-9.39 1.027-16.61v-43l-17.972 9.39-1.028 16.61v43m284-57c0 4.743 2.047 15.889-2.433 18.973-3.635 2.5-11.322 1.027-15.567 1.027 0-16.615.786-20 18-20m-207.96 41.657c-11.84 3.74-5.703 22.638 5.957 18.435 11.886-4.285 6.027-22.22-5.957-18.435m227.96 12.343c4.488 9.337 19.382 7.574 18.471-4-.811-10.31-14.341-11.26-18.47-3h-2c-.87-1.76-1.462-3.11-3.15-4.282-16.735-11.616-20.055 26.183-.942 16.707 2.485-1.232 4.247-3.428 6.091-5.425M524.7 621.02c-12.143 3.754-5.691 22.656 5.98 18.435 11.773-4.258 6.059-22.157-5.98-18.435z" clip-path="url(#a)" style="fill:#067b37;stroke:none" transform="translate(-18.238 -20.005) scale(.07802)"/></svg>