<svg xmlns="http://www.w3.org/2000/svg" xmlns:xlink="http://www.w3.org/1999/xlink" width="40" height="40">
  <defs>
    <linearGradient id="a">
      <stop offset="0" style="stop-color:#020202;stop-opacity:0"/>
      <stop offset="0" style="stop-color:#60a5fa;stop-opacity:.41568628"/>
      <stop offset="1" style="stop-color:#6366f1;stop-opacity:1"/>
    </linearGradient>
    <linearGradient xlink:href="#a" id="b" x1="0" x2="20" y1="10" y2="10" gradientTransform="scale(2)" gradientUnits="userSpaceOnUse"/>
  </defs>
  <path d="M15.106.065C11.102.59 7.316 1.833 4.462 4.873c-5.928 6.314-5.878 15.706-.275 22.172 1.153 1.33 2.699 2.454 4.262 3.258 3.63 1.868 7.865 2.417 11.825 1.336 1.504-.41 2.99-1.034 4.308-1.866.34-.215 1.075-.954 1.488-.73.977.53 1.874 1.822 2.662 2.608l5.795 5.777c.978.975 2.241 2.84 3.838 2.54 1.188-.223 1.93-1.48 1.523-2.618-.23-.642-.74-1.093-1.21-1.562l-7.205-7.182-1.88-1.874c-.199-.199-.603-.479-.635-.78-.027-.249.244-.514.374-.703.376-.552.724-1.121 1.025-1.718.898-1.777 1.539-3.71 1.73-5.699.775-8.088-4.65-15.84-12.752-17.456-1.35-.27-2.854-.49-4.23-.31m.236 3.97c7.066-.831 13.137 5.87 12.84 12.625-.256 5.826-4.85 10.754-10.647 11.454-1.48.18-3.017.111-4.464-.269-7.726-2.028-11.489-10.915-7.528-17.82.782-1.365 1.892-2.59 3.142-3.541 1.977-1.504 4.226-2.163 6.657-2.449Z" style="fill:url(#b);stroke:none;stroke-width:.0781914"/>
</svg>
