<svg xmlns="http://www.w3.org/2000/svg" width="20" height="20">
  <defs>
    <clipPath id="a" clipPathUnits="userSpaceOnUse">
      <path d="M131.725 108.399h493.969v473.387H131.725z" style="fill:#000;fill-opacity:.286467"/>
    </clipPath>
  </defs>
  <path d="M278.997 730.898v-10c-42.274 0-84.853-4.008-127-6.91-28.08-1.935-52.447-1.834-72.906-24.09-14.723-16.015-14.78-35.632-16.183-56-1.836-26.661-4.27-53.27-4.925-80-1.167-47.635-4.414-95.3-4.982-143-.802-67.432 2.013-134.767 4.957-202 1.184-27.034 3.807-53.986 5-81 .923-20.888 1.108-42.655 16.133-59 22.928-24.943 52.625-22.948 83.906-25.09 53.852-3.688 108-7.264 162-7.906 91.972-1.094 183.36 1.944 275 5.956 38.525 1.687 88.137-3.461 115.816 28.04 14.66 16.684 13.85 38.235 15.274 59 1.805 26.333 4.278 52.598 4.925 79 2.819 115.065 7.955 229.926.075 345-1.848 26.981-3.141 54.01-5 81-1.398 20.302-1.506 40.034-16.183 56-20.803 22.63-45.45 22.13-73.906 24.09-41.488 2.856-83.386 6.91-125 6.91v10c43.024 0 86.12-3.958 129-6.91 28.891-1.99 55.256-2.675 76.449-25.39 18.938-20.3 18.849-45.684 20.64-71.7 1.76-25.545 4.899-51.382 4.91-77 .016-32.265 3.195-64.725 3.986-97 2.142-87.467 1.07-175.895-4.896-263-1.712-25.006-2.542-50.029-4.92-75-1.957-20.555-3.845-38.763-18.343-55-25.885-28.99-68.154-26.475-103.826-28.04-76.637-3.36-153.151-8.084-230-7.96-75.396.12-151.973 1.69-227 8.83-33.085 3.149-66.464-.082-90.827 27.17-14.533 16.256-16.382 34.404-18.343 55-2.376 24.947-2.629 50.083-5 75-6.232 65.482-4.83 132.166-4.83 198 0 57.511-2.023 116.904 4.714 174 3.002 25.443 2.683 51.45 5.116 77 2.195 23.05 3.6 42.948 20.583 60.71 21.082 22.048 47.199 22.433 75.587 24.38 43.222 2.962 86.63 6.91 130 6.91m363-661.11c-5.65 1.28-19.748 14.92-18.429 21.095.967 4.527 5.961 8.15 9.143 11.131 2.939 2.755 6.627 8.46 11.286 7.747 5.223-.8 20.439-15.277 19.248-20.863-.91-4.271-6.32-8.073-9.248-11-2.866-2.865-7.29-9.177-12-8.11m33 2.11c-8.6 7.618-7.299 9.583-1 18 10.616-4.952 9.87-11.747 1-18m-456 11 8-1v-3c-3.935.046-6.658-.046-8 4m174 0 8-1c-2.502-3.856-6.555-3.355-8 1m38-4-6 8 3 1c2.15-2.96 4.892-5.515 3-9m70 0-6 8 1 1 7-8-2-1m-136 1c-3.555 8.03-3.555 14.97 0 23h3l1-22-4-1m37 0v22c9.918-1.64 7.797-18.701 0-22m33 0-7 9v1l16 2v3c-5.216 0-13.006 1.457-17.857-.604-3.383-1.437-3.918-6.1-8.143-6.1-7.824 0-5.472 10.458 2 10.704v1l-6 2 1 4c4.397-1.541 7.705-5.57 12.039-6.683 5.414-1.39 13.769 1.939 18.527-1.345 10.03-6.922-7.628-9.972-11.566-9.972 2.526-3.093 3.883-4.854 1-8m70 0c-9.724 11.175-3.836 12 8 12v3h-21v-14h-3c-4.874 18.819 8.7 18.318 22.96 17.95 4.07-.105 11.125 1.417 14.606-.978 2.795-1.923 2.407-6.011 2.434-8.972l-4 1c-.537 4.866-3.642 4.948-8 5-.601-7.879-6.569-7-13-7l4-5v-1l-3-2m-257 2 1 2-2 3 7-1-2-5-4 1m21 0v16l4 1v-18l-4 1m40-1c0 9.196-2.02 17.748 9.424 17.86 2.332.023 5.16.363 6.971-1.464 3.456-3.485.313-9.427-4.356-9.06-3.863.305-5.03 4.842-8.04 6.664l-1-14h-3m25 1c.798 4.36-1.057 12.248 2.525 15.41 2.774 2.448 17.856 3.07 20.297-.014 1.695-2.141 1.171-5.852 1.179-8.396l-6 6v-5h-4v5h-3v-6h-3v6h-4v-14l-4 1m197-1v18h3v-18h-3m41 0v14h-3c-1.774-15.542-19.337 2.83-4 4l-5 7c4.61-1.335 7.02-4.601 11.12-6.493 7.764-3.582 12.838 1.308 12.88-10.507h-3v6h-6c0-4.868 1.321-10.884-3-14m-109 1v13h-3c-1.209-15.839-19.083 2.835-4 4l-5 3 1 4c4.085-1.433 6.726-2.709 8-7 8.995-1.027 7-9.978 7-17h-4m123 0v17h4v-17h-4m-363 1-1 16h3v-16h-2m173 0v16h4l-1-16h-3m-205 1v3h3v-3h-3m73 3 4-3-4 3m65 0 4-3-4 3m252-3v3h3v-3h-3m111 0-4 4v1c6.371 5.185 10.382-.076 4-5m-410 2 2 9-9-3c.418 5.48 8.484 11.065 11.38 3.852 1.357-3.377-.788-7.01-2.38-9.852h-2m15 0v3h4v-3h-4m180 0v3h3v-3h-3m74 0 2 9-9-3c.362 6.542 9.882 10.928 11.893 2.941.8-3.177-1.392-6.344-2.893-8.941h-2m47 0-1 1 3 8h-6v-3h-2l-1 1c2.707 13.266 21.287.428 7-7m-424 11 7 3-13-7c.014 4.01-.236 8.625 4.058 10.592 3.988 1.827 14.504.079 12.14-6.315-.885-2.398-4.383-3.647-6.198-5.277 3.474-.577 4.423-1.526 5-5-6.099 1.33-8.793 3.602-9 10m29 2v1l-6 3 1 3c4.403-1.543 7.515-5.512 11.753-6.822 3.068-.949 7.095.77 9.215-2.496 2.336-3.601-.418-9.128-4.93-8.306-3.286.6-4.887 4.446-7.038 6.624-2.449-15.679-19.466 2.82-4 4m62-11-1 7h-5v-6h-4l-3 6 1-5h-4l-3 5v-6l-4 1c2.23 10.42-7.96 11.788-8 0h-4c0 7.338.915 16.189 10.985 13.563 3.3-.86 5.409-3.887 8.768-4.556 4.671-.93 11.726 1.77 15.813-1.035 3.799-2.608 2.508-7.755-.566-9.972m106 17h4v-13c3.04 8.101 15.115 8.106 11.253-.852-1.89-4.384-11.5-4.455-14.074-.715-2.459 3.572-1.18 10.428-1.18 14.567m-181-15-5 15c9.51-1.06 9-8.19 9-16l-4 1m114-1c-1.227 10.692-8.956 13.55-9 1h-4c.001 3.321-.677 7.776 1.18 10.721 2.682 4.254 11.14 4.389 13.793.05 1.919-3.138 1.028-8.241 1.028-11.771h-3m25 0-5 16c9.346-1.044 9-8.298 9-16h-4m60 0c-.001 5.996.418 10.744-6 13l1 4c8.66-3.037 7.91-8.028 9-16l-4-1m94 0v10c-7.018.66-8.92-2.243-9-9h-3c0 2.86-.428 6.171.317 8.956 3.916 14.632 25.765-4.296 11.683-9.956m54 0-6 16c9.509-1.06 9-8.19 9-16h-3m-334 3v3h-3v-3h3m14 1v1l-4 1 1-3 3 1m106-1v3h-3v-3h3m60 0v3h-3v-3h3m37 0-4 3 4-3m37 1v1l-4 1 1-3 3 1m108-1v3h-3v-3h3m103.019 2.345c-5.993 1.585-3.81 10.452 1.962 9.733 6.702-.834 3.94-11.293-1.962-9.733m-149.02 8.655v2l7 1v-4l-7 1m-129 23.464c-12.915 2.33-23.8 12.026-34 19.662-16.597 12.428-33.409 24.562-50 37-20.883 15.656-42.086 30.882-63 46.5-11.281 8.424-24.93 16.125-32.532 28.374-8.4 13.534-6.467 29.78-6.467 45v85c0 14.294-1.904 30.31 6.132 43 6.73 10.628 17.962 17.583 27.868 24.884 16.686 12.3 33.407 24.565 50 36.99 23.559 17.64 47.373 34.945 71 52.496 12.982 9.644 26.812 20.382 44 17.162 12.545-2.35 23.1-11.734 33-19.159a4596.83 4596.83 0 0 1 49-36.222c21.76-15.874 43.45-31.863 65-48.025 10.736-8.052 24.303-15.48 31.532-27.126 8.487-13.674 7.468-31.44 7.468-47v-84c0-14.41.759-31.566-7.598-44-7.235-10.764-19.058-17.955-29.402-25.425-16.114-11.635-32.098-23.527-48-35.449-23.552-17.656-47.453-34.84-71-52.5-12.51-9.382-26.341-20.166-43-17.162m6 51.108c11.509 0 20.202 7.65 29 14.003 16.14 11.655 31.974 23.728 48 35.54 25.473 18.776 55.584 36.278 76.83 59.885 6.932 7.703 11.963 16.407 15.77 26 3.573 9.009 5.396 18.314 5.4 28 .023 60.343-53.184 88.784-97 120.424-16.808 12.137-33.218 24.828-50 37-8.007 5.806-16.55 13.15-27 13.446-11.56.327-21.333-8.023-30-14.496-15.941-11.904-31.987-23.682-48-35.49-42.54-31.368-106.084-64.38-97.575-126.884 1.18-8.676 3.127-16.935 6.575-25 4.255-9.951 10.511-19.214 18.039-26.996 20.183-20.865 47.565-37.06 70.96-54.156 16.741-12.232 33.25-24.78 50-37 8.802-6.42 17.433-14.276 29-14.276m-28 283.428v-61c0-8.492 1.994-19.99-1.148-28-4.856-12.383-24.82-13.708-31.279-1.96-4.863 8.846-1.572 26.022-1.572 35.96-8.74-4.11-15.786-15.657-20.219-24-13.875-26.117-14.483-56.216-1.892-83 30.263-64.375 121.604-67.835 159.057-9 10.14 15.929 14.06 33.35 14.054 52-.01 22.636-10.214 44.081-26 60 0-8.753 2.58-22.433-2.703-29.957-7.656-10.901-25.85-8.425-30.328 3.957-2.83 7.828-.97 18.753-.97 27v57c19.77-2.92 38.263-16.246 52-30 61.738-61.813 40.076-171.524-42-203.19-12.875-4.967-29.14-8.501-43-7.717-61.266 3.467-110.918 49.037-116.83 110.907-4.314 45.15 17.144 92.443 55.83 116.575 10.724 6.689 24.127 13.836 37 14.425m22-171.471c-25.954 5.989-17 46.551 9 40.952 26.867-5.785 17.795-47.134-9-40.952m-45 26c-22.004 4.981-15.039 39.617 7 34.786 22.738-4.984 15.398-39.855-7-34.785m96-.058c-21.978 3.963-17.234 38.215 5 35.02 23.132-3.322 18.056-39.177-5-35.02m-24 147.528v-83c0-9.005 2.295-21.762-2-29.961-6.405-12.229-27.23-11.962-35.58-1.934-5.489 6.59-3.42 17.923-3.42 25.895v62c0 5.374-2.838 23.3 1.604 26.82 8.634 6.844 29.484.605 39.397.18m-114 124-4 10h-1c-.818-10.838-12.514-8.617-11.008.909.412 2.61 3.2 4.453 5.008 6.09h1l4-7c2.02 1.836 4.834 5.126 7.895 4.883 8.873-.702 4.028-13.2-1.895-14.882m134 6c-1.173 1.647-2.286 3.226-3.223 5.024-7.415 14.219 14.912 10.398 7.64-.966-1.149-1.795-2.74-2.838-4.417-4.058m11 0c-1 1.956-2.16 3.915-2.866 6.004-4.742 14.025 17.419 6.606 7.572-3.686-1.398-1.462-2.858-1.793-4.706-2.318m93 8c-1.039 1.981-2.226 3.94-3.095 6.004-5.806 13.807 17.01 8.34 7.685-2.777-1.301-1.55-2.852-2.303-4.59-3.227m-262 8c-5.628 12.03-7.82 26.71-7.982 40-.066 5.424 1.56 14.049 8.982 12.638 5.526-1.051 6.655-7.257 11.104-9.712 3.61-1.992 8.494.884 10.608-3.989 1.435-3.308-3.081-7.62-.25-10.244 2.275-2.11 6.723-.556 9.538-1.862 6.544-3.037 14.351-10.138 17-16.831l-1-1c-8.645 1.878-15.755-3.868-21 6h13c-6.175 5.883-11.93 3.48-17.96 7.667-6.081 4.223-7.766 12.591-14.08 16.587-3.491 2.21-7.621 1.324-9.643-2.363-5.945-10.846 4.385-25.633 1.683-36.891m151 2c-4.94 12.042-12.1 35.156-6.852 47.98 6.056 14.798 14.718-7.706 14.852-13.98h-1c-2.708 6.798-8.783 7.048-9.808-1.001-1.33-10.465 5.866-23.056 2.808-33m78 0c-5.412 11.57-6.236 23.475-7.715 36-.57 4.823-1.133 11.958 3.109 15.396 9.196 7.456 13.482-10.383 10.606-16.395h-2l-2 6c-12.252-9.712.997-28.512-2-41m53 0c-4.402 11.348-5.721 21.981-7.282 34-.682 5.25-1.72 12.18 2.16 16.566 5.393 6.094 11.104-.98 15.211-4.253 7.93-6.322 16.345-7.104 16.91-19.313h-1c-3.997 7.587-24.787 23.022-28.466 7.996-2.751-11.235 5.773-24.248 2.467-34.996m-317 20c-4.545 6.529-11.035 12.37-10.916 20.996.088 6.402 9.653 8.767 6.003 15.007-5.791 9.9-25.621 15.735-29.654.997-2.813-10.282 5.319-21.288 7.567-31-4.847 3.553-7.322 12.436-9.302 18-1.696 4.766-2.975 9.942-3.373 15-.237 3.012.35 6.104 1.168 9 9.78 34.629 61.454-20.822 32.507-33l26-26c-3.242 1.513-7.222 4.82-10.977 4.352-7.418-.925-.688-5.79 3.977-5.352-1.108-14.22-23.046 6.302-13 12m97-15c-4.307 12.652-10.898 29.47-10 43 10.468-11.182 10.193-28.705 12-43h-2m65 7c-2.435 3.69-4.408 8.802-8.105 11.396-3.16 2.217-8.46.818-10.293 4.832-5.182 11.346-.216 22.597-10.696 32.586-7.437 7.09-28.513 12.711-30.639-2.814-1.066-7.791 4.749-15.747 6.733-23-16.785 9.525-17.05 52.616 10 44.83 13.243-3.813 21.169-17.406 24.96-29.83 1.323-4.335 1.11-9.91 3.357-13.857 1.932-3.394 6.815-5.481 9.683-8.143 6.377 12.143 15.466-3.639 13-12h-2l-2 4-2-8h-2m135 8-7.8 18-14.2 15c14.166-.65 27.542-18.8 22-33m-49 2c-4.496 10.812-2.738 24.506-9.224 33.999-6.552 9.589-29.98 20.433-34.819 2.997-2.389-8.608 5.19-16.678 6.043-24.996h-1c-3.122 5.348-6.317 11.097-8.251 17-5.556 16.958 2.692 36.646 23.25 27.79 16.431-7.079 22.556-26.456 24.075-42.79.437-4.688 1.804-9.524-.074-14m-24 11c-1.143 1.957-2.31 3.912-3.201 6.004-5.977 14.028 18.475 8.785 7.943-2.777-1.379-1.513-2.972-2.299-4.742-3.227m-101 1c-1.108 2-2.46 3.938-3.442 6-6.103 12.82 18.378 9.194 8.148-2.851-1.362-1.605-2.868-2.282-4.706-3.15m-52 18-5 12c10.91 6.736 15.276-7.088 5-12m86 14-4 10h-1c-.545-4.847-2.48-7.204-7-9-1.592 2.728-4.534 6.642-4.007 9.985 1.23 7.79 8.315 3.918 10.007-.984 11.286 10.911 17.371-4.634 6-10m-93.683 42.027c-8.75 5.84 1.921 20.247 11.365 13.945 8.75-5.84-1.921-20.246-11.365-13.945m22.727.004c-9.285 4.815-2.236 18.52 6.936 13.789 9.472-4.886 1.727-18.28-6.936-13.789m-30.044-.031-16 8 13-4-7 9 8 2 2-15m9.808.597c9.062-2.92 14.557 10.102 6.172 12.75-8.972 2.833-14.337-10.12-6.172-12.75m26.192 12.403 2-4-4 1v-6l4 1-1-3-8 1v1h4v6h-4v1h6c-5.045 5.769-11.094-4.999-5.428-8.972 7.526-5.278 14.068 6.15 6.428 10.972m-20-11 2 2v-2h-2m166 10v-1c-6.547-1.026-6.547-5.974 0-7-7.564-4.585-10.964 9.394 0 8m8.014-9.083c-5.49.528-4.446 9.207.946 8.617 5.342-.585 4.49-9.14-.946-8.617m-192.014.083-1 1 1-1m13.317 1.086c-3.758 2.17-.394 7.997 3.365 5.827 3.758-2.17.394-7.997-3.365-5.827m37.683-1.086v9h1v-4h4v-1h-4v-3h5l-6-1m13 0-3 9h1l5-3 1 3h1l-3-9h-2m9 0v9h1v-3l5 3c.828-5.8.444-8.789-6-9m12 0-1 3 6 2-6 2v1c3.618.81 5.193.272 7-3l-6-2 2-2-2-1m4 0 1 1-1-1m12 9v-1c-5.975-1.796-4.586-6.12 1-7-7.75-3.135-9.36 6.678-1 8m6-9v9h1v-3c7.098-1.132 5.394-5.79-1-6m15 0-4 9h1l7-1-4-8m9 0v9h1l3-3v-1h-3v-4h4v4c1.28-3.906-1.55-4.732-5-5m10 0v9h1v-4h4v-1h-4l-1-4m7 0-1 6h1v-6m5 0v9h1l-1-9m12 9v-1c-6.26-1-6.26-6.001 0-7-7.342-2.757-8.674 7.338 0 8m36-9v9h1v-5h1l2 5h1l2-4h1v4h2v-9l-5 6h-1l-4-6m-186 2.205c2.315 0 2.315 3.59 0 3.59-2.316 0-2.316-3.59 0-3.59m64-.205v2c-3.138.494-4 .036-5-3l5 1m34 0v2c-3.138.494-4 .036-5-3l5 1m78.278-.338c3.336-1.398 5.615 3.556 2.408 5.163-3.238 1.621-5.79-3.747-2.408-5.163m-160.278.338-1 3c2.565-.551 2.86-1.14 1-3m34 0-1 4 1-4m58 0 1 4c-3.021-.65-3.086-1.915-1-4m-85 1v2h2v-2h-2m61 1v1l3 3h1v-4h-4m13 3 2 2-2-2m35 0 1 1-1-1m23.666 1.333.667.333z" clip-path="url(#a)" style="fill:#000096;fill-opacity:1;stroke:none" transform="matrix(.0519 0 0 .0458 -10.566 -5.759)"/>
</svg>
