<svg xmlns="http://www.w3.org/2000/svg" width="20" height="20">
  <path d="M10.981.21c-.386.047-.751.095-1.118.227-.196.07-.398.24-.603.27-.248.038-.599-.16-.86-.185a2.788 2.788 0 0 0-2.023.642c-.7.611-.849 1.5-1.433 2.174-.63.724-1.393 1.34-1.602 2.298-.178.814.096 1.621-.038 2.42-.067.395-.287.757-.437 1.129-.514 1.278-.906 3.375.972 3.84.328.082.695.094 1.032.064.335-.03 1.773-.041 1.486-.636-.167-.346-.767-.071-1.055-.046-.864.077-1.83.106-2.133-.843-.363-1.144.573-2.198.779-3.267.173-.901-.186-1.856.153-2.742.336-.877 1.198-1.427 1.68-2.217.452-.743.679-1.617 1.586-2.004.345-.147.79-.234 1.162-.132.272.075.565.333.86.268.237-.053.423-.287.646-.386a3.202 3.202 0 0 1 2.022-.16c1.433.37 1.634 1.87 2.376 2.857.563.75 1.317 1.27 1.52 2.218.177.823-.153 1.688.084 2.5.296 1.019 1.227 2.163.715 3.266-.381.823-1.327.736-2.113.685-.3-.02-.898-.353-1.014.082-.14.532 1.231.548 1.573.562.33.014.67.007.99-.08 1.716-.468 1.506-2.432 1.014-3.668-.145-.364-.346-.718-.465-1.089-.265-.83.108-1.76-.094-2.62-.244-1.039-1.09-1.633-1.712-2.46-.383-.51-.574-1.131-.941-1.654A3.186 3.186 0 0 0 10.98.21M8.314 3.074c-1.09.18-1.075 1.653-1.48 2.4-.17.317-.438.608-.8.734-.27.094-.582.082-.814.257-.496.373-.435 1.231-.329 1.752.069.336.23.68.5.915.146.126.362.195.482.343.278.344.36.93.581 1.322.284.504.823.883 1.084 1.371.183.344.105 1.264-.119 1.573-.594.823-1.871 1.116-2.806 1.46-1.56.575-3.125 1.326-4.007 2.734-.32.509-.762 1.404-.578 2.015.079.262.472.322.619.077.088-.146.05-.358.076-.52.055-.332.158-.666.318-.967.612-1.155 1.85-2 3.099-2.476.28-.107.815-.425 1.117-.382.191.027.294.306.39.438.276.38.607.727.989 1.016 1.166.884 2.609 1.23 4.087 1.074a5.23 5.23 0 0 0 2.926-1.324c.29-.269.555-.562.772-.887.084-.126.158-.315.347-.308.336.014.768.26 1.075.383 1.153.46 2.313 1.185 2.951 2.224.193.313.352.652.43 1.008.046.212.008.486.094.683a.345.345 0 0 0 .397.186c.432-.101.232-.791.163-1.07-.253-1.025-.943-1.861-1.797-2.516-1.156-.887-2.555-1.303-3.916-1.824-.634-.243-1.52-.61-1.76-1.266-.103-.283-.147-1.019-.003-1.29.261-.49.814-.87 1.105-1.371.235-.406.317-1.005.604-1.363.327-.407.776-.546.937-1.097.153-.525.269-1.519-.245-1.904-.215-.161-.48-.171-.724-.269-.299-.119-.548-.313-.774-.529-.82-.784-1.392-2.304-2.625-2.584-.472-.108-.85.164-1.29.149-.368-.012-.691-.23-1.076-.167m.087.684c.407-.107.672.239 1.031.284.377.048.659-.356 1.119-.238.357.092.619.443.833.703.473.576.892 1.219 1.451 1.727.247.224.54.447.857.576.294.12.642.1.736.439.118.43.047 1.084-.31 1.404-.182.163-.492.167-.622.375-.203.324-.235.774-.4 1.124-.461.978-1.323 1.92-2.459 2.212-1.483.38-2.907-.665-3.56-1.849-.251-.455-.315-1.019-.577-1.45-.138-.23-.441-.239-.634-.412-.353-.316-.418-.934-.329-1.364.084-.406.55-.35.883-.497.407-.178.723-.516.946-.874.302-.484.424-1.047.618-1.572.077-.207.162-.52.417-.588m-.087 8.854c1.074.717 2.24.476 3.356.04 0 .382-.028.765.116 1.13.354.893 1.41 1.187 2.207 1.612-1.052 2.285-4.435 2.76-6.497 1.53-.583-.347-1.304-.926-1.506-1.57.832-.225 1.893-.81 2.19-1.613.135-.363-.018-.79.134-1.129z" style="fill:#050505;stroke:none;stroke-width:.0416536"/>
</svg>
