<?xml version="1.0" encoding="UTF-8" standalone="no"?>
<!-- Created with Inkscape (http://www.inkscape.org/) -->

<svg
   width="15.999991mm"
   height="16.000038mm"
   viewBox="0 0 15.999992 16.000038"
   version="1.1"
   id="svg1"
   xml:space="preserve"
   inkscape:version="1.4.2 (f4327f4, 2025-05-13)"
   sodipodi:docname="leaf_logo.svg"
   xmlns:inkscape="http://www.inkscape.org/namespaces/inkscape"
   xmlns:sodipodi="http://sodipodi.sourceforge.net/DTD/sodipodi-0.dtd"
   xmlns="http://www.w3.org/2000/svg"
   xmlns:svg="http://www.w3.org/2000/svg"><sodipodi:namedview
     id="namedview1"
     pagecolor="#ffffff"
     bordercolor="#000000"
     borderopacity="0.25"
     inkscape:showpageshadow="2"
     inkscape:pageopacity="0.0"
     inkscape:pagecheckerboard="0"
     inkscape:deskcolor="#d1d1d1"
     inkscape:document-units="mm"
     inkscape:zoom="1.4142136"
     inkscape:cx="-124.09724"
     inkscape:cy="-50.20458"
     inkscape:window-width="1031"
     inkscape:window-height="1020"
     inkscape:window-x="577"
     inkscape:window-y="211"
     inkscape:window-maximized="0"
     inkscape:current-layer="layer1" /><defs
     id="defs1" /><g
     inkscape:label="Layer 1"
     inkscape:groupmode="layer"
     id="layer1"
     transform="translate(-131.88755,-200.88408)"><path
       style="fill:#4ea6ff;stroke:none;stroke-width:0.592787"
       d="m 146.66852,200.89838 c -0.23394,0.098 -0.45058,0.4142 -0.65419,0.58265 -0.40441,0.33457 -0.83564,0.60667 -1.27995,0.86203 -2.13054,1.22451 -4.80404,2.00379 -5.64112,4.94726 -0.32613,1.14681 -0.31421,2.41793 -0.0923,3.58909 0.0846,0.44673 0.19376,0.88366 0.31978,1.31709 0.0387,0.13304 0.17095,0.3731 0.13627,0.51287 -0.0636,0.25614 -0.3747,0.55479 -0.51437,0.77129 -0.40737,0.6315 -0.75041,1.31722 -1.01814,2.0415 -0.0824,0.22296 -0.26404,0.57597 -0.25263,0.82267 0.006,0.13856 0.14379,0.2032 0.23617,0.25539 0.24312,0.13735 0.68725,0.35433 0.96297,0.26149 0.16599,-0.0558 0.19459,-0.57698 0.24144,-0.74686 0.20011,-0.72579 0.46804,-1.4189 0.80378,-2.07442 1.06357,-2.07661 2.56093,-3.83328 3.83904,-5.72936 0.32941,-0.48868 0.65022,-0.98346 0.96858,-1.48172 0.0905,-0.1416 0.23132,-0.49521 0.38016,-0.55297 0.15637,-0.0607 4.6e-4,0.33881 -0.017,0.38832 -0.14289,0.40512 -0.31669,0.79557 -0.48788,1.18539 -0.61537,1.40132 -1.42587,2.74117 -2.28949,3.95128 -0.23884,0.33464 -0.4796,0.6699 -0.73497,0.98782 -0.0792,0.0986 -0.27492,0.26048 -0.22924,0.42054 0.0412,0.14423 0.24637,0.10629 0.34556,0.1063 0.33417,3e-5 0.6638,-0.009 0.99551,-0.0565 1.44243,-0.20508 2.75404,-0.77477 3.74967,-2.05087 1.59902,-2.04944 1.68292,-5.04523 1.17438,-7.60622 -0.14432,-0.72681 -0.32032,-1.4427 -0.54927,-2.14027 -0.0603,-0.18363 -0.14639,-0.66698 -0.39273,-0.56381 z"
       id="path3" /><path
       style="fill:#4ea6ff;stroke:none;stroke-width:0.426887"
       d="m 132.7653,203.58825 c 0.16847,0.0706 0.32449,0.29828 0.4711,0.4196 0.29123,0.24093 0.60179,0.43688 0.92174,0.62077 1.53429,0.88182 3.45957,1.443 4.06238,3.56271 0.23486,0.82585 0.22628,1.74123 0.0665,2.58463 -0.061,0.3217 -0.13952,0.63635 -0.23029,0.94848 -0.0278,0.0958 -0.1231,0.26868 -0.0981,0.36933 0.0457,0.18447 0.26984,0.39953 0.37041,0.55543 0.29336,0.45478 0.5404,0.94859 0.7332,1.47017 0.0594,0.16056 0.19015,0.41477 0.18192,0.59244 -0.005,0.0998 -0.10354,0.14633 -0.17007,0.18392 -0.17508,0.0989 -0.49492,0.25516 -0.69347,0.1883 -0.11953,-0.0402 -0.14013,-0.41551 -0.17386,-0.53784 -0.14411,-0.52266 -0.33706,-1.0218 -0.57884,-1.49386 -0.76592,-1.49545 -1.84421,-2.76049 -2.76463,-4.12593 -0.23722,-0.35191 -0.46825,-0.70822 -0.69751,-1.06704 -0.0652,-0.10197 -0.16659,-0.35662 -0.27377,-0.39821 -0.11261,-0.0437 -3.3e-4,0.24399 0.0123,0.27965 0.1029,0.29173 0.22807,0.57291 0.35135,0.85363 0.44314,1.00915 1.02681,1.97402 1.64874,2.84548 0.17198,0.24097 0.34537,0.4824 0.52927,0.71135 0.057,0.0709 0.19798,0.18758 0.16509,0.30284 -0.0297,0.10387 -0.17741,0.0766 -0.24885,0.0766 -0.24065,2e-5 -0.47803,-0.007 -0.7169,-0.0407 -1.03874,-0.14768 -1.98328,-0.55794 -2.70028,-1.47691 -1.15152,-1.47588 -1.21193,-3.63325 -0.84571,-5.47751 0.10393,-0.52341 0.23067,-1.03895 0.39555,-1.54129 0.0434,-0.13223 0.10542,-0.48031 0.28282,-0.40601 z"
       id="path3-7" /></g></svg>
