<?xml version="1.0" encoding="UTF-8"?>
<svg id="Layer_1" xmlns="http://www.w3.org/2000/svg" version="1.1" viewBox="0 0 400 400">
  <!-- Generator: Adobe Illustrator 29.7.1, SVG Export Plug-In . SVG Version: 2.1.1 Build 8)  -->
  <defs>
    <style>
      .st0 {
        fill: #214eae;
        stroke: #000;
        stroke-miterlimit: 10;
      }
    </style>
  </defs>
  <path class="st0" d="M211.32,8l18.99,2.37c21.9,3.49,43.09,10.86,62.48,21.5,4.13,2.26,13.93,7.62,16.9,10.63,5.59,5.65.36,14.69-7.85,12.56-2.75-.71-10.89-7.04-14.3-8.94C135.89-38.48-33.17,120.54,40.49,276.77c5.28,11.2,12.58,21.03,18.61,31.67l-10.46,43.06,43.04-10.46c10.23,5.59,19.58,12.7,30.16,17.86,93.81,45.73,207.28.73,243.74-96.46,18.78-50.06,14.16-103.45-11.68-149.94-1.9-3.42-8.23-11.54-8.94-14.3-2.12-8.22,6.91-13.45,12.56-7.85,3.01,2.97,8.36,12.78,10.62,16.91,9,16.4,15.61,34.07,19.6,52.39l4.26,29.11v22.5l-2.47,19.66c-12.4,77.36-72.56,140.59-149.1,156.84l-28.37,4.25h-23.24l-27.88-3.99c-26.05-5.4-50.29-16.48-72.24-31.25l-49.67,13.33c-5.28.83-9.82-3.7-8.99-9l13.33-49.68c-14.68-21.97-25.68-45.64-31.12-71.65l-4.12-27.76c.33-7.69-.45-15.59,0-23.25C13.76,92.7,92.67,13.45,188.83,8h22.49Z"/>
  <circle class="st0" cx="330.41" cy="69.62" r="7.51"/>
  <g>
    <path class="st0" d="M190.17,77.22c77.74-7.23,115.43,92.2,49.86,137.63-4.83,3.35-10.28,4.87-14.12,9.88-4.67,6.1-2.55,11.21-4.63,17.87-5.23,16.75-28.23,21.65-39.96,8.78-14.69-16.14-.63-48.83,12.71-62.28,8.81-8.89,23.71-12.95,29.41-23.83,12.97-24.75-15.68-51.81-39.81-36.82-11.41,7.09-10.15,18.73-19.2,25.79-18.19,14.2-43.22-2.94-37.32-25.33,7.05-26.74,35.88-49.15,63.05-51.68h0ZM190.92,92.22c-18.32,1.87-36.24,14.8-44.96,30.78-3.09,5.67-8.27,15.4-.88,19.89,11.2,6.8,13.65-8.44,17.95-14.82,27.27-40.5,90.24-10.34,76.8,36.33-7.31,25.37-30.45,24.78-42.61,45.13-4.99,8.35-14.44,35.95,3.24,34,7.94-.88,6.24-8.58,7.3-13.7,4.4-21.33,17.03-20.75,30.56-32.43,44.63-38.55,11.51-111.17-47.4-105.16v-.02h0Z"/>
    <path class="st0" d="M222.36,299.63c0,13.03-10.56,23.6-23.59,23.6s-23.59-10.57-23.59-23.6,10.56-23.6,23.59-23.6,23.59,10.57,23.59,23.6ZM207.37,299.65c0-4.75-3.85-8.59-8.59-8.59s-8.59,3.85-8.59,8.59,3.85,8.59,8.59,8.59,8.59-3.85,8.59-8.59Z"/>
  </g>
</svg>