<svg xmlns="http://www.w3.org/2000/svg" width="20" height="20">
  <path d="m.038 19.834.644-.04c0-1.504.168-2.807 1.692-3.493.45-.203.94-.28 1.41-.416.351-.1.7-.204 1.047-.322.128-.044.304-.152.443-.107.187.061.346.295.483.429.257.25.547.46.846.658 1.062.705 2.423 1.119 3.705 1.031a6.512 6.512 0 0 0 3.222-1.084c.337-.226.64-.48.926-.766.12-.12.254-.303.443-.272.388.062.787.27 1.168.376 1.164.324 2.544.562 3.053 1.83.179.447.247.972.25 1.451 0 .25-.078.659.047.882.165.294.544.124.589-.157.074-.468.005-1.025-.061-1.49a3.698 3.698 0 0 0-.266-1.008c-.822-1.827-2.944-1.86-4.578-2.515-.768-.307-1.8-.767-2.116-1.596-.125-.326-.155-1.123-.025-1.45.173-.431.555-.817.761-1.25.15-.315.178-.755.37-1.039.22-.325.632-.42.834-.814.211-.415.27-.952.198-1.41-.031-.202-.145-.404-.15-.605-.016-.744.217-1.49.164-2.257-.047-.69-.336-1.244-.497-1.894-.118-.478.508-1.054.11-1.562-.194-.247-.632-.076-.898-.094-.845-.057-1.563-.319-2.376-.515C10.255.041 8.653.041 7.529.67c-.402.225-.635.56-.978.843-.654.54-1.196.911-1.491 1.759-.385 1.105-.103 2.228-.031 3.345.014.218-.11.465-.14.685-.054.369-.002.776.117 1.128.18.534.632.62.915 1.018.208.295.249.784.41 1.118.204.42.546.76.748 1.168.174.351.105 1.264-.054 1.612-.281.617-.997 1.021-1.59 1.284-1.316.584-2.923.678-4.108 1.515C.113 17 .038 18.485.038 19.835M14.174 1.457c-.003.349-.314.655-.297.967.021.378.398.818.49 1.21.203.874.119 1.737.05 2.619-.31-.147-.423-.522-.577-.806-.25-.462-.57-.93-1.035-1.195-1.083-.618-2.414.053-3.584-.16a2.476 2.476 0 0 1-1.047-.44c-.15-.112-.314-.317-.52-.207-.285.153-.401.72-.539.994-.335.672-.82 1.441-1.52 1.774-.169-.915-.218-2.12.164-2.983.263-.595.724-.821 1.203-1.194.243-.19.391-.475.648-.662C8.15.98 8.887.844 9.543.815c1.607-.07 3.03.643 4.631.643M7.892 4.32c.732.231 1.331.557 2.134.522.77-.034 1.738-.425 2.457-.025.555.31.778.969 1.105 1.477.213.332.582.45.794.735.216.29.14.881.033 1.2-.17.506-.707.454-.902.846-.326.656-.356 1.354-.819 1.974-1.174 1.573-3.299 1.866-4.798.609a3.753 3.753 0 0 1-1.09-1.536c-.123-.323-.166-.695-.31-1.007-.127-.275-.446-.27-.655-.457-.36-.322-.453-1.023-.338-1.477.083-.33.733-.567.979-.807.627-.612.976-1.31 1.41-2.054m-.08 7.979c1.066.63 2.13 1.03 3.382.6.399-.136.71-.422 1.088-.6 0 .365-.026.733.082 1.088.238.78 1.044 1.388 1.77 1.692-.243.522-.992.948-1.49 1.2-1.62.816-3.479.88-5.115.06-.534-.269-1.349-.698-1.61-1.26.74-.31 1.556-.93 1.782-1.733.093-.334-.02-.739.11-1.047z" style="fill:#050505;stroke:none;stroke-width:.0402866"/>
</svg>
