<?xml version="1.0" encoding="UTF-8"?>
<svg id="Layer_1" xmlns="http://www.w3.org/2000/svg" version="1.1" viewBox="0 0 40 40">
  <!-- Generator: Adobe Illustrator 29.7.1, SVG Export Plug-In . SVG Version: 2.1.1 Build 8)  -->
  <defs>
    <style>
      .st0 {
        fill: #214eae;
      }
    </style>
  </defs>
  <path class="st0" d="M15.11.06c-4,.52-7.79,1.77-10.64,4.81-5.93,6.31-5.88,15.71-.28,22.17,1.15,1.33,2.7,2.45,4.26,3.26,3.63,1.87,7.86,2.42,11.82,1.34,1.5-.41,2.99-1.03,4.31-1.87.34-.22,1.08-.95,1.49-.73.98.53,1.87,1.82,2.66,2.61l5.8,5.78c.98.97,2.24,2.84,3.84,2.54,1.19-.22,1.93-1.48,1.52-2.62-.23-.64-.74-1.09-1.21-1.56l-7.2-7.18-1.88-1.87c-.2-.2-.6-.48-.64-.78-.03-.25.24-.51.37-.7.38-.55.72-1.12,1.02-1.72.9-1.78,1.54-3.71,1.73-5.7.78-8.09-4.65-15.84-12.75-17.46-1.35-.27-2.85-.49-4.23-.31M15.34,4.04c7.07-.83,13.14,5.87,12.84,12.62-.26,5.83-4.85,10.75-10.65,11.45-1.48.18-3.02.11-4.46-.27-7.73-2.03-11.49-10.92-7.53-17.82.78-1.36,1.89-2.59,3.14-3.54,1.98-1.5,4.23-2.16,6.66-2.45Z"/>
</svg>