<svg xmlns="http://www.w3.org/2000/svg" width="20" height="20"><path d="M214.492 57.797c-6.304-.16-12.585-.042-18.428 1.062-14.717 2.783-17 14.89-17 27.532v95c0 11.304-3.25 28.358 3.801 37.96 8.307 11.311 24.964 8.04 37.2 8.04h75c11.66 0 25.6 2.092 37-.391 15.248-3.322 16-18.085 16-30.61v-93c0-11.191 3.052-27.623-4.395-36.984-8.79-11.049-25.13-8.015-37.606-8.015h-73c-5.939 0-12.267-.435-18.572-.594zm111.16 20.771c2.862 9.683 1 21.925 1 32v64c0 5.802 3.132 26.22-1.603 29.971-5.8 4.594-26.048 1.03-33.397 1.03h-92v-126h83z" style="fill:#204b89;stroke:none" transform="matrix(.11782 0 0 .11732 -21.031 -6.664)"/><path d="M233.3 170.863c-1.745-9.515-11.323-7-19-7 1.762 11.767 8.564 34.078 24.826 24.972 8.99-5.035 16.648-20.77 22.8-28.972 17.296-23.062 38.107-45.961 52.373-71-5.119 0-13.245-1.537-17.826 1.028-7.054 3.95-12.747 15.571-17.547 21.972-13.836 18.448-27.791 44.481-45.627 59" style="fill:#ed1c24;fill-opacity:1;stroke:none" transform="matrix(.11782 0 0 .11732 -21.031 -6.664)"/></svg>