<?xml version="1.0" encoding="UTF-8"?>
<svg id="Layer_1" xmlns="http://www.w3.org/2000/svg" version="1.1" xmlns:xlink="http://www.w3.org/1999/xlink" viewBox="0 0 194.95 24.1">
  <!-- Generator: Adobe Illustrator 29.7.1, SVG Export Plug-In . SVG Version: 2.1.1 Build 8)  -->
  <defs>
    <style>
      .st0 {
        fill: #214eae;
      }

      .st1 {
        clip-path: url(#clippath);
      }
    </style>
    <clipPath id="clippath">
      <path class="st0" d="M12.13.73C5.85.71.74,5.8.73,12.09c0,.02,0,.04,0,.05-.01,6.29,5.07,11.39,11.36,11.41h168.4c6.29.01,11.4-5.07,11.41-11.36,0-.02,0-.03,0-.05.02-6.29-5.07-11.4-11.35-11.41-.02,0-.04,0-.06,0H12.13ZM12.13,51.54c-6.29-.01-11.39,5.07-11.41,11.36,0,.02,0,.03,0,.05-.01,6.29,5.07,11.4,11.36,11.41.02,0,.03,0,.05,0h168.35c6.29.01,11.4-5.07,11.41-11.36,0-.02,0-.04,0-.05.01-6.29-5.07-11.39-11.36-11.41-.02,0-.03,0-.05,0H12.13ZM12.13,102.35c-6.29-.01-11.39,5.07-11.41,11.36,0,.02,0,.03,0,.05-.01,6.29,5.07,11.39,11.36,11.41h168.4c6.29.01,11.4-5.07,11.41-11.36,0-.02,0-.03,0-.05.01-6.29-5.07-11.4-11.36-11.41-.02,0-.04,0-.05,0H12.13Z"/>
    </clipPath>
  </defs>
  <path class="st0" d="M12.13.73C5.85.71.74,5.8.73,12.09c0,.02,0,.04,0,.05-.01,6.29,5.07,11.39,11.36,11.41h168.4c6.29.01,11.4-5.07,11.41-11.36,0-.02,0-.03,0-.05.02-6.29-5.07-11.4-11.35-11.41-.02,0-.04,0-.06,0H12.13ZM12.13,51.54c-6.29-.01-11.39,5.07-11.41,11.36,0,.02,0,.03,0,.05-.01,6.29,5.07,11.4,11.36,11.41.02,0,.03,0,.05,0h168.35c6.29.01,11.4-5.07,11.41-11.36,0-.02,0-.04,0-.05.01-6.29-5.07-11.39-11.36-11.41-.02,0-.03,0-.05,0H12.13ZM12.13,102.35c-6.29-.01-11.39,5.07-11.41,11.36,0,.02,0,.03,0,.05-.01,6.29,5.07,11.39,11.36,11.41h168.4c6.29.01,11.4-5.07,11.41-11.36,0-.02,0-.03,0-.05.01-6.29-5.07-11.4-11.36-11.41-.02,0-.04,0-.05,0H12.13Z"/>
  <g class="st1">
    <path class="st0" d="M.73.73h191.17l.73,27.88L.73,26.42V.73Z"/>
  </g>
</svg>