<?xml version="1.0" encoding="UTF-8"?>
<svg id="Layer_1" xmlns="http://www.w3.org/2000/svg" version="1.1" xmlns:xlink="http://www.w3.org/1999/xlink" viewBox="0 0 492.39 216.33">
  <!-- Generator: Adobe Illustrator 29.7.1, SVG Export Plug-In . SVG Version: 2.1.1 Build 8)  -->
  <defs>
    <style>
      .st0 {
        fill: #9a0e0e;
      }

      .st1 {
        clip-path: url(#clippath);
      }
    </style>
    <clipPath id="clippath">
      <path class="st0" d="M26.85,0C12.02,0,0,12.02,0,26.84v162.66c0,14.83,12.02,26.84,26.85,26.84h438.69c14.83,0,26.85-12.02,26.85-26.84V26.84C492.38,12.01,480.37,0,465.54,0H26.85ZM26.85,5.94h438.69c11.48-.07,20.84,9.19,20.91,20.67,0,.08,0,.16,0,.23v162.65c.06,11.48-9.19,20.84-20.67,20.9-.08,0-.16,0-.23,0H26.85c-11.48.06-20.84-9.19-20.9-20.67,0-.08,0-.15,0-.23V26.84c-.06-11.48,9.2-20.84,20.68-20.9.07,0,.15,0,.22,0ZM294.88,67.57v66.95h5.78v-66.95h-5.78ZM252.2,69.86l-5.23,5.24,5.24,5.23,5.24-5.23-5.24-5.24ZM82.16,70.64v37.04c0,5.67,1.2,9.82,3.61,12.45,2.34,2.51,5.82,3.81,10.47,3.91h0s6.33,0,6.33,0c3.26,0,5.86-.68,7.8-2.06,1.94-1.39,3.33-3.31,4.19-5.74.85-2.43,1.28-5.2,1.28-8.3,0-1.81-.13-3.71-.39-5.7-.27-2.04-.62-4.07-1.05-6.09l-6.75,1.7c.36,1.94.7,3.87,1.01,5.78.31,1.91.46,3.71.46,5.39,0,2.31-.46,4.2-1.4,5.71-.9,1.5-2.65,2.25-5.23,2.25h-5.66c-2.72,0-4.75-.63-6.09-1.9-1.35-1.27-2.02-3.72-2.02-7.37v-37.08h-6.55ZM107.29,78.28l-5.62,5.62,5.62,5.63,5.62-5.63-5.62-5.62ZM245.58,79.68l-5.24,5.23,5.24,5.24,5.23-5.24-5.23-5.23ZM258.84,79.68l-5.24,5.23,5.24,5.24,5.24-5.24-5.24-5.23ZM169.86,86l-5.39,5.39,5.39,5.47,5.43-5.47-5.43-5.39ZM182.74,86l-5.39,5.39,5.39,5.47,5.43-5.47-5.43-5.39ZM343.33,86.74l-3.07,6.13c3.83,2.1,6.92,4.1,9.27,6.01,2.35,1.89,4.07,3.7,5.16,5.44,1.08,1.73,1.63,3.41,1.63,5.04s-.54,3.13-1.63,4.27c-1.09,1.14-2.73,2-4.93,2.6-2.2.57-4.98.85-8.34.85-1.27,0-2.64-.09-4.11-.27-1.57-.2-3.14-.46-4.69-.77v7.02c1.4.31,2.88.54,4.46.7,1.61.15,3.25.23,4.93.23,4.86,0,8.83-.54,11.91-1.63,3.08-1.11,5.36-2.77,6.83-4.97,1.47-2.2,2.21-4.91,2.21-8.14,0-2.04-.4-4.03-1.2-5.97-.89-2.11-2.13-4.07-3.65-5.78-1.6-1.89-3.65-3.72-6.13-5.51-2.75-1.96-5.64-3.71-8.65-5.23h0ZM383.74,95.69c-2.07,0-3.92.49-5.54,1.47-1.63.98-3.02,2.29-4.15,3.92-1.12,1.63-1.99,3.42-2.56,5.31-.56,1.86-.85,3.8-.85,5.74,0,4.03,1.19,7.05,3.57,9.04,2.41,1.99,5.93,2.99,10.59,2.99.98,0,2.12-.11,3.41-.35,1.3-.23,2.43-.5,3.41-.81-.39,2.62-1.51,5.07-3.22,7.09-1.73,2.1-4.06,3.86-6.98,5.28-2.9,1.42-6.33,2.52-10.32,3.3l2.29,6.16c5.51-1.06,10.1-2.79,13.77-5.2,3.7-2.38,6.46-5.43,8.3-9.15,1.86-3.7,2.8-8.05,2.8-13.07,0-2.74-.3-5.4-.89-7.99-.54-2.45-1.45-4.8-2.68-6.98-1.1-1.98-2.66-3.66-4.54-4.92-1.81-1.22-3.95-1.83-6.4-1.83ZM445.07,95.69c-2.07,0-3.92.49-5.55,1.47-1.64,1-3.06,2.33-4.15,3.92-1.12,1.63-1.99,3.42-2.56,5.31-.56,1.86-.85,3.8-.85,5.74,0,4.03,1.19,7.05,3.57,9.04,2.4,1.99,5.93,2.99,10.59,2.99.98,0,2.12-.11,3.41-.35,1.15-.2,2.29-.47,3.41-.81-.39,2.62-1.51,5.07-3.22,7.09-1.73,2.1-4.06,3.86-6.98,5.28-2.9,1.42-6.33,2.52-10.32,3.3l2.29,6.16c5.51-1.06,10.1-2.79,13.77-5.2,3.7-2.38,6.46-5.43,8.3-9.15,1.86-3.7,2.79-8.05,2.79-13.07,0-2.74-.29-5.4-.89-7.99-.54-2.45-1.44-4.8-2.68-6.98-1.1-1.98-2.66-3.66-4.54-4.92-1.81-1.22-3.95-1.83-6.4-1.83h0ZM261.44,96.16l-6.75,1.7c.36,1.94.7,3.87,1.01,5.78.31,1.91.46,3.7.46,5.39,0,2.3-.47,4.2-1.4,5.7-.91,1.5-2.65,2.25-5.23,2.25h-7.22c-1.66,0-3.05-.28-4.19-.85-1.1-.56-2.01-1.44-2.6-2.52-.62-1.14-.98-2.53-1.08-4.19l-.62-9.07-6.48.77c.11,1.11.18,2.23.23,3.34.08,1.11.11,2.29.11,3.53,0,3.05-.71,5.31-2.13,6.79-1.4,1.47-3.73,2.21-7.02,2.21h-3.88c-2.51,0-4.4-.65-5.66-1.94-1.24-1.29-1.94-3.17-2.09-5.63l-.66-9.07-6.48.77c.1,1.09.18,2.24.23,3.45.08,1.22.12,2.35.12,3.42,0,2.28-.76,4.07-2.29,5.39-1.53,1.3-3.75,2.23-6.67,2.8-2.9.54-6.4.81-10.51.81h-6.48c-3.75,0-7.03-.15-9.85-.47-2.82-.33-5.17-.91-7.06-1.7-1.86-.83-3.27-1.97-4.23-3.41s-1.44-3.31-1.44-5.59c0-1.16.13-2.39.39-3.69.27-1.24.62-2.46,1.05-3.65l-6.01-2.25c-.65,1.6-1.19,3.25-1.59,4.93-.39,1.72-.58,3.47-.58,5.23,0,3.26.6,6.01,1.82,8.26,1.24,2.25,3.08,4.07,5.51,5.47,2.46,1.37,5.51,2.37,9.16,2.99,3.67.62,7.95.93,12.84.93h6.48c5.95,0,10.59-.53,13.93-1.59,3.36-1.09,6.12-2.87,8.26-5.36,1.21,2.43,2.76,4.2,4.61,5.32,1.75,1,3.93,1.54,6.56,1.62h0s4.54.01,4.54.01c2.48,0,4.86-.48,7.14-1.44,2.24-.93,4.15-2.49,5.51-4.5.7,1.27,1.54,2.34,2.52,3.22.98.88,2.17,1.55,3.57,2.01,1.24.42,2.67.64,4.31.69h0s8.03.01,8.03.01c3.26,0,5.86-.68,7.8-2.05,1.94-1.4,3.34-3.31,4.19-5.74.85-2.43,1.28-5.2,1.28-8.3,0-1.81-.13-3.71-.39-5.7-.27-2.04-.62-4.08-1.05-6.09h0ZM58.07,96.24c-2.01,0-3.82.37-5.39,1.12-1.62.75-3.04,1.86-4.19,3.22-1.22,1.4-2.29,3.09-3.22,5.08-1,2.19-1.83,4.46-2.48,6.79-2.35.44-4.2,1.36-5.55,2.76-1.35,1.37-2.34,3.11-2.99,5.23-.66,2.3-1.06,4.67-1.2,7.06-.16,2.61-.23,5.37-.23,8.26,0,2.12.04,4.21.11,6.29.08,2.09.18,4.33.31,6.71h6.67c-.09-1.53-.19-3.05-.31-4.57-.08-1.35-.14-2.72-.19-4.11-.03-1.57-.04-3.13-.04-4.7,0-2.97.06-5.47.19-7.48.13-1.99.38-3.57.74-4.74.36-1.19.88-2.04,1.55-2.56.67-.51,1.55-.77,2.64-.77.8,0,1.8.25,2.99.74,1.32.55,2.62,1.12,3.92,1.71,1.45.62,2.95,1.18,4.5,1.67,1.58.49,3.13.74,4.66.74,2.69,0,4.9-.53,6.63-1.59,1.76-1.06,3.06-2.5,3.92-4.31.85-1.84,1.28-3.92,1.28-6.24,0-3.18-.63-5.99-1.9-8.42-1.14-2.35-2.9-4.34-5.08-5.78-2.15-1.4-4.59-2.09-7.33-2.09h0ZM383.66,102.68c1.24,0,2.33.29,3.26.89.96.57,1.77,1.44,2.45,2.6.67,1.13,1.2,2.54,1.59,4.23.42,1.66.68,3.57.82,5.74-1.12.34-2.26.59-3.42.77-1.12.15-2.25.23-3.38.23-2.64,0-4.6-.4-5.9-1.21-1.29-.8-1.94-2.14-1.94-4.03,0-1.16.18-2.46.54-3.88.39-1.45,1.05-2.7,1.98-3.76.96-1.06,2.29-1.59,3.99-1.59ZM444.99,102.68c1.24,0,2.33.29,3.26.89.96.57,1.77,1.44,2.45,2.6.67,1.13,1.2,2.54,1.59,4.23.42,1.66.68,3.57.81,5.74-1.12.34-2.26.59-3.41.77-1.12.15-2.25.23-3.38.23-2.64,0-4.6-.4-5.9-1.21-1.29-.8-1.94-2.14-1.94-4.03,0-1.16.18-2.46.54-3.88.39-1.45,1.05-2.7,1.98-3.76.96-1.06,2.29-1.59,3.99-1.59ZM421.41,102.91l-6.44,2.17c.85,2.51,1.51,4.98,1.98,7.41.48,2.27.72,4.58.74,6.91,0,3.13-.57,5.99-1.71,8.57-1.11,2.59-2.92,4.8-5.43,6.63-2.51,1.86-5.87,3.25-10.09,4.15l2.29,6.17c4.94-.96,8.98-2.73,12.14-5.31,3.11-2.47,5.53-5.7,7.02-9.38,1.52-3.67,2.29-7.67,2.29-11.99,0-2.46-.24-4.98-.73-7.56-.48-2.64-1.17-5.23-2.06-7.76ZM58.22,103.11c1.5,0,2.82.41,3.96,1.24,1.14.83,2.03,1.95,2.68,3.38.65,1.4.97,2.99.97,4.77,0,1.58-.44,2.85-1.32,3.8-.85.93-2.14,1.4-3.88,1.4-.62,0-1.46-.15-2.52-.47-1.26-.42-2.5-.88-3.73-1.39-1.68-.69-3.34-1.4-5-2.13.42-1.37.88-2.69,1.4-3.96.54-1.27,1.15-2.39,1.82-3.38.7-1.01,1.5-1.8,2.4-2.37.93-.59,2-.89,3.22-.89ZM221.99,129.99l-5.62,5.62,5.63,5.62,5.62-5.62-5.63-5.62Z"/>
    </clipPath>
  </defs>
  <path class="st0" d="M26.85,0C12.02,0,0,12.02,0,26.84v162.66c0,14.83,12.02,26.84,26.85,26.84h438.69c14.83,0,26.85-12.02,26.85-26.84V26.84C492.38,12.01,480.37,0,465.54,0H26.85ZM26.85,5.94h438.69c11.48-.07,20.84,9.19,20.91,20.67,0,.08,0,.16,0,.23v162.65c.06,11.48-9.19,20.84-20.67,20.9-.08,0-.16,0-.23,0H26.85c-11.48.06-20.84-9.19-20.9-20.67,0-.08,0-.15,0-.23V26.84c-.06-11.48,9.2-20.84,20.68-20.9.07,0,.15,0,.22,0ZM294.88,67.57v66.95h5.78v-66.95h-5.78ZM252.2,69.86l-5.23,5.24,5.24,5.23,5.24-5.23-5.24-5.24ZM82.16,70.64v37.04c0,5.67,1.2,9.82,3.61,12.45,2.34,2.51,5.82,3.81,10.47,3.91h0s6.33,0,6.33,0c3.26,0,5.86-.68,7.8-2.06,1.94-1.39,3.33-3.31,4.19-5.74.85-2.43,1.28-5.2,1.28-8.3,0-1.81-.13-3.71-.39-5.7-.27-2.04-.62-4.07-1.05-6.09l-6.75,1.7c.36,1.94.7,3.87,1.01,5.78.31,1.91.46,3.71.46,5.39,0,2.31-.46,4.2-1.4,5.71-.9,1.5-2.65,2.25-5.23,2.25h-5.66c-2.72,0-4.75-.63-6.09-1.9-1.35-1.27-2.02-3.72-2.02-7.37v-37.08h-6.55ZM107.29,78.28l-5.62,5.62,5.62,5.63,5.62-5.63-5.62-5.62ZM245.58,79.68l-5.24,5.23,5.24,5.24,5.23-5.24-5.23-5.23ZM258.84,79.68l-5.24,5.23,5.24,5.24,5.24-5.24-5.24-5.23ZM169.86,86l-5.39,5.39,5.39,5.47,5.43-5.47-5.43-5.39ZM182.74,86l-5.39,5.39,5.39,5.47,5.43-5.47-5.43-5.39ZM343.33,86.74l-3.07,6.13c3.83,2.1,6.92,4.1,9.27,6.01,2.35,1.89,4.07,3.7,5.16,5.44,1.08,1.73,1.63,3.41,1.63,5.04s-.54,3.13-1.63,4.27c-1.09,1.14-2.73,2-4.93,2.6-2.2.57-4.98.85-8.34.85-1.27,0-2.64-.09-4.11-.27-1.57-.2-3.14-.46-4.69-.77v7.02c1.4.31,2.88.54,4.46.7,1.61.15,3.25.23,4.93.23,4.86,0,8.83-.54,11.91-1.63,3.08-1.11,5.36-2.77,6.83-4.97,1.47-2.2,2.21-4.91,2.21-8.14,0-2.04-.4-4.03-1.2-5.97-.89-2.11-2.13-4.07-3.65-5.78-1.6-1.89-3.65-3.72-6.13-5.51-2.75-1.96-5.64-3.71-8.65-5.23h0ZM383.74,95.69c-2.07,0-3.92.49-5.54,1.47-1.63.98-3.02,2.29-4.15,3.92-1.12,1.63-1.99,3.42-2.56,5.31-.56,1.86-.85,3.8-.85,5.74,0,4.03,1.19,7.05,3.57,9.04,2.41,1.99,5.93,2.99,10.59,2.99.98,0,2.12-.11,3.41-.35,1.3-.23,2.43-.5,3.41-.81-.39,2.62-1.51,5.07-3.22,7.09-1.73,2.1-4.06,3.86-6.98,5.28-2.9,1.42-6.33,2.52-10.32,3.3l2.29,6.16c5.51-1.06,10.1-2.79,13.77-5.2,3.7-2.38,6.46-5.43,8.3-9.15,1.86-3.7,2.8-8.05,2.8-13.07,0-2.74-.3-5.4-.89-7.99-.54-2.45-1.45-4.8-2.68-6.98-1.1-1.98-2.66-3.66-4.54-4.92-1.81-1.22-3.95-1.83-6.4-1.83ZM445.07,95.69c-2.07,0-3.92.49-5.55,1.47-1.64,1-3.06,2.33-4.15,3.92-1.12,1.63-1.99,3.42-2.56,5.31-.56,1.86-.85,3.8-.85,5.74,0,4.03,1.19,7.05,3.57,9.04,2.4,1.99,5.93,2.99,10.59,2.99.98,0,2.12-.11,3.41-.35,1.15-.2,2.29-.47,3.41-.81-.39,2.62-1.51,5.07-3.22,7.09-1.73,2.1-4.06,3.86-6.98,5.28-2.9,1.42-6.33,2.52-10.32,3.3l2.29,6.16c5.51-1.06,10.1-2.79,13.77-5.2,3.7-2.38,6.46-5.43,8.3-9.15,1.86-3.7,2.79-8.05,2.79-13.07,0-2.74-.29-5.4-.89-7.99-.54-2.45-1.44-4.8-2.68-6.98-1.1-1.98-2.66-3.66-4.54-4.92-1.81-1.22-3.95-1.83-6.4-1.83h0ZM261.44,96.16l-6.75,1.7c.36,1.94.7,3.87,1.01,5.78.31,1.91.46,3.7.46,5.39,0,2.3-.47,4.2-1.4,5.7-.91,1.5-2.65,2.25-5.23,2.25h-7.22c-1.66,0-3.05-.28-4.19-.85-1.1-.56-2.01-1.44-2.6-2.52-.62-1.14-.98-2.53-1.08-4.19l-.62-9.07-6.48.77c.11,1.11.18,2.23.23,3.34.08,1.11.11,2.29.11,3.53,0,3.05-.71,5.31-2.13,6.79-1.4,1.47-3.73,2.21-7.02,2.21h-3.88c-2.51,0-4.4-.65-5.66-1.94-1.24-1.29-1.94-3.17-2.09-5.63l-.66-9.07-6.48.77c.1,1.09.18,2.24.23,3.45.08,1.22.12,2.35.12,3.42,0,2.28-.76,4.07-2.29,5.39-1.53,1.3-3.75,2.23-6.67,2.8-2.9.54-6.4.81-10.51.81h-6.48c-3.75,0-7.03-.15-9.85-.47-2.82-.33-5.17-.91-7.06-1.7-1.86-.83-3.27-1.97-4.23-3.41s-1.44-3.31-1.44-5.59c0-1.16.13-2.39.39-3.69.27-1.24.62-2.46,1.05-3.65l-6.01-2.25c-.65,1.6-1.19,3.25-1.59,4.93-.39,1.72-.58,3.47-.58,5.23,0,3.26.6,6.01,1.82,8.26,1.24,2.25,3.08,4.07,5.51,5.47,2.46,1.37,5.51,2.37,9.16,2.99,3.67.62,7.95.93,12.84.93h6.48c5.95,0,10.59-.53,13.93-1.59,3.36-1.09,6.12-2.87,8.26-5.36,1.21,2.43,2.76,4.2,4.61,5.32,1.75,1,3.93,1.54,6.56,1.62h0s4.54.01,4.54.01c2.48,0,4.86-.48,7.14-1.44,2.24-.93,4.15-2.49,5.51-4.5.7,1.27,1.54,2.34,2.52,3.22.98.88,2.17,1.55,3.57,2.01,1.24.42,2.67.64,4.31.69h0s8.03.01,8.03.01c3.26,0,5.86-.68,7.8-2.05,1.94-1.4,3.34-3.31,4.19-5.74.85-2.43,1.28-5.2,1.28-8.3,0-1.81-.13-3.71-.39-5.7-.27-2.04-.62-4.08-1.05-6.09h0ZM58.07,96.24c-2.01,0-3.82.37-5.39,1.12-1.62.75-3.04,1.86-4.19,3.22-1.22,1.4-2.29,3.09-3.22,5.08-1,2.19-1.83,4.46-2.48,6.79-2.35.44-4.2,1.36-5.55,2.76-1.35,1.37-2.34,3.11-2.99,5.23-.66,2.3-1.06,4.67-1.2,7.06-.16,2.61-.23,5.37-.23,8.26,0,2.12.04,4.21.11,6.29.08,2.09.18,4.33.31,6.71h6.67c-.09-1.53-.19-3.05-.31-4.57-.08-1.35-.14-2.72-.19-4.11-.03-1.57-.04-3.13-.04-4.7,0-2.97.06-5.47.19-7.48.13-1.99.38-3.57.74-4.74.36-1.19.88-2.04,1.55-2.56.67-.51,1.55-.77,2.64-.77.8,0,1.8.25,2.99.74,1.32.55,2.62,1.12,3.92,1.71,1.45.62,2.95,1.18,4.5,1.67,1.58.49,3.13.74,4.66.74,2.69,0,4.9-.53,6.63-1.59,1.76-1.06,3.06-2.5,3.92-4.31.85-1.84,1.28-3.92,1.28-6.24,0-3.18-.63-5.99-1.9-8.42-1.14-2.35-2.9-4.34-5.08-5.78-2.15-1.4-4.59-2.09-7.33-2.09h0ZM383.66,102.68c1.24,0,2.33.29,3.26.89.96.57,1.77,1.44,2.45,2.6.67,1.13,1.2,2.54,1.59,4.23.42,1.66.68,3.57.82,5.74-1.12.34-2.26.59-3.42.77-1.12.15-2.25.23-3.38.23-2.64,0-4.6-.4-5.9-1.21-1.29-.8-1.94-2.14-1.94-4.03,0-1.16.18-2.46.54-3.88.39-1.45,1.05-2.7,1.98-3.76.96-1.06,2.29-1.59,3.99-1.59ZM444.99,102.68c1.24,0,2.33.29,3.26.89.96.57,1.77,1.44,2.45,2.6.67,1.13,1.2,2.54,1.59,4.23.42,1.66.68,3.57.81,5.74-1.12.34-2.26.59-3.41.77-1.12.15-2.25.23-3.38.23-2.64,0-4.6-.4-5.9-1.21-1.29-.8-1.94-2.14-1.94-4.03,0-1.16.18-2.46.54-3.88.39-1.45,1.05-2.7,1.98-3.76.96-1.06,2.29-1.59,3.99-1.59ZM421.41,102.91l-6.44,2.17c.85,2.51,1.51,4.98,1.98,7.41.48,2.27.72,4.58.74,6.91,0,3.13-.57,5.99-1.71,8.57-1.11,2.59-2.92,4.8-5.43,6.63-2.51,1.86-5.87,3.25-10.09,4.15l2.29,6.17c4.94-.96,8.98-2.73,12.14-5.31,3.11-2.47,5.53-5.7,7.02-9.38,1.52-3.67,2.29-7.67,2.29-11.99,0-2.46-.24-4.98-.73-7.56-.48-2.64-1.17-5.23-2.06-7.76ZM58.22,103.11c1.5,0,2.82.41,3.96,1.24,1.14.83,2.03,1.95,2.68,3.38.65,1.4.97,2.99.97,4.77,0,1.58-.44,2.85-1.32,3.8-.85.93-2.14,1.4-3.88,1.4-.62,0-1.46-.15-2.52-.47-1.26-.42-2.5-.88-3.73-1.39-1.68-.69-3.34-1.4-5-2.13.42-1.37.88-2.69,1.4-3.96.54-1.27,1.15-2.39,1.82-3.38.7-1.01,1.5-1.8,2.4-2.37.93-.59,2-.89,3.22-.89ZM221.99,129.99l-5.62,5.62,5.63,5.62,5.62-5.62-5.63-5.62Z"/>
  <g class="st1">
    <rect class="st0" x="0" y="0" width="492.39" height="216.33"/>
  </g>
</svg>