<?xml version="1.0" encoding="UTF-8"?>
<svg id="Layer_1" data-name="Layer 1" xmlns="http://www.w3.org/2000/svg" viewBox="0 0 778.67 843.7">
  <path d="M105.04,274.06h0c-2.19,3.18-43.67,64.16-55.49,116.77-5.05,22.49-6.47,45.62-6.47,45.62-.64,10.48-1.23,20.13,0,32.68,1.08,11,3.1,29.77,13.62,50.38,13.57,26.59,33.3,40.69,37.45,43.57,18.56,12.91,35.71,16.47,53.11,20.09,28.22,5.86,50.58,4.14,67.4,2.72,8.87-.75,35.74-3.44,69.11-14.64,19.12-6.42,32.04-12.9,57.87-25.87,20.95-10.52,38.79-19.48,61.28-34.38,23.74-15.74,40.33-29.94,53.79-41.53,12.38-10.67,26.58-22.9,43.23-40.85,19.45-20.96,31.46-38.26,55.49-72.85,13.17-18.96,19.92-28.74,27.91-43.23,12.2-22.12,19.78-41.25,23.49-50.72,4.41-11.25,6.77-17.27,9.19-25.87,6.15-21.85,7.3-41.27,7.15-54.47-.25-21.25-.57-49.45-18.04-78.64-5.43-9.07-17.82-27.1-40.17-41.19-20.23-12.76-38.52-15.91-54.81-18.72-29.2-5.04-52.03-2.35-70.81,0-10.25,1.29-40.01,5.54-76.6,19.74-31.37,12.18-52.56,25.77-76.6,41.19-19.62,12.59-41.35,28.06-64,46.98l-19.52,11.84c6.85-7.58,16.62-17.88,29.04-29.34,14.73-13.59,40.68-35.73,85.35-62.24,43.99-26.1,82.57-46.7,130.17-59.59,72.65-19.66,114.98-8.71,124.7-6.21,34.33,8.86,45.73,24.46,51.3,30.52,16.66,18.17,20.92,39.18,24.28,56.9,6.72,35.44,1.49,64.59-1.78,80.02-6.24,29.44-15.73,58.15-27.45,85.84-17.39,41.1-39.65,80.11-66.28,115.92-26.44,35.57-57.57,67.16-88.53,98.74-34.67,35.36-57.37,54.07-69.94,64.01-39.57,31.31-72.83,50.19-83.87,56.31-19.7,10.91-48.26,26.55-88.61,39.71-32.85,10.72-60.63,19.5-98.09,18.08-21.54-.82-46.95-2.1-72.9-18.67-17.58-11.22-32.55-26.03-40.29-45.71-5.47-13.92-7.73-28.91-8.83-43.83-.32-4.34-.55-8.69-.68-13.03-.73-23.66.42-49.02,6.43-72.03,5.2-19.9,13.02-38.92,21.44-57.67,5.1-11.34,10.52-22,21.38-43.3,9.36-18.38,14.04-27.57,18.27-34.89,7.78-13.45,20.04-32.18,38.87-53.05l-1.55,4.88Z" style="fill: #0054a5;"/>
  <text transform="translate(64.67 440.16) rotate(83.58)" style="fill: #0054a5; font-family: MyriadPro-Regular, &apos;Myriad Pro&apos;; font-size: 31px; stroke: #0054a5; stroke-miterlimit: 10;"><tspan x="0" y="0">Javid company</tspan></text>
  <text transform="translate(590.96 187.99) rotate(-94.55)" style="fill: #0054a5; font-family: MyriadPro-Regular, &apos;Myriad Pro&apos;; font-size: 31px; stroke: #0054a5; stroke-miterlimit: 10;"><tspan x="0" y="0">Javid company</tspan></text>
  <text transform="translate(117.83 711.42)" style="fill: #0054a5; font-family: &apos;Mj_SaudiArabiaXL&apos;, &apos;Mj_Saudi Arabia XL&apos;; font-size: 46px; stroke: #000; stroke-miterlimit: 10;"><tspan x="0" y="0">موسسه ثبتی و حقوقی جاوید</tspan></text>
  <text transform="translate(309.58 820.36)" style="fill: #909307; font-family: &apos;Mj_SaudiArabiaXL&apos;, &apos;Mj_Saudi Arabia XL&apos;; font-size: 44px; stroke: #000; stroke-miterlimit: 10;"><tspan x="0" y="0">انتخاب مدیران شایسته</tspan></text>
  <g>
    <path d="M187.78,188.43c-8.96,7.57-17.92,15.14-26.88,22.71.48,1.75,1.4,4.3,3.24,6.95.55.79,2.66,3.71,6.95,6.49,7.55,4.89,16.68,6.02,16.68,6.02,0,0,2.78-12.6,8.34-37.8-2.78-1.46-5.56-2.91-8.34-4.37Z" style="fill: #e0d480; stroke: #e0d480; stroke-miterlimit: 10;"/>
    <path d="M200.75,195.85c-2.16,12.67-4.33,25.33-6.49,38h35.22v-36.15c-4.94.5-10.91.68-17.61,0-4.1-.41-7.82-1.08-11.12-1.85Z" style="fill: #e0d480; stroke: #e0d480; stroke-miterlimit: 10;"/>
    <path d="M234.12,195.85c.77,11.59,1.54,23.17,2.32,34.76,2.55-.21,6.1-.69,10.2-1.85,1.92-.55,7.42-2.23,15.76-7.41,5-3.11,11.82-7.97,19-15.29-7.88-8.65-15.76-17.3-23.63-25.95-1.87,2.46-4.57,5.49-8.34,8.34-5.81,4.41-11.55,6.43-15.29,7.41Z" style="fill: #e0d480; stroke: #e0d480; stroke-miterlimit: 10;"/>
    <path d="M264.71,177.77c8.65,8.19,17.3,16.37,25.95,24.56,2.72-.77,7.23-2.47,11.12-6.49,3.21-3.31,4.55-6.7,6.49-11.59,1.27-3.21,2.77-7.75,3.71-13.44-13.59-2.32-27.19-4.63-40.78-6.95.23.97.96,4.52-.93,8.34-1.74,3.51-4.62,5.09-5.56,5.56Z" style="fill: #e0d480; stroke: #e0d480; stroke-miterlimit: 10;"/>
    <path d="M266.56,134.67c1.65,1.55,4.78,4.91,6.49,10.2,2.22,6.86.67,12.71,0,14.83,14.52,2.01,29.04,4.02,43.56,6.02.52-2.54,1.03-6.7,0-11.59-.93-4.42-2.7-7.43-4.63-10.66-1.86-3.11-4.92-7.49-9.73-11.98-11.89,1.06-23.79,2.11-35.68,3.17Z" style="fill: #e0d480; stroke: #e0d480; stroke-miterlimit: 10;"/>
    <path d="M321.24,180.09c-1.49,6.67-4.3,10.5-6.49,12.71-1.65,1.67-2.91,2.38-9.73,7.22-3.19,2.26-5.76,4.13-7.41,5.33,10.66,13.52,21.32,27.03,31.98,40.55,6.01-4.76,10.86-8.93,14.37-12.05,7.89-7.02,10.85-10.34,12.98-12.98,5.83-7.2,7.41-11.59,7.88-15.52.26-2.19.15-4.04,0-5.33-14.52-6.64-29.04-13.28-43.56-19.93Z" style="fill: #e0d480; stroke: #e0d480; stroke-miterlimit: 10;"/>
    <path d="M191.95,238.48c-1.08,17.46-2.16,34.91-3.24,52.37,2.84,1.1,6.95,2.44,12.05,3.24,1.86.29,5.73.81,18.54,0,17.79-1.12,23.27-2.94,26.42-4.17,2.6-1.02,4.66-2.05,6.02-2.78l-19.46-48.66c-3.42,1.15-7.46,2.19-12.05,2.78-11.99,1.54-21.99-.73-28.27-2.78Z" style="fill: #e0d480; stroke: #e0d480; stroke-miterlimit: 10;"/>
    <path d="M387.5,150.89c17.46,8.81,34.92,17.61,52.38,26.42.65,3.83,1.41,9.14,1.85,15.49.37,5.21.97,13.79,0,22.05-.77,6.57-3.13,17.9-11.59,31.05-15.6-14.52-31.2-29.04-46.81-43.56,1.33-2.8,2.93-6.72,4.15-11.59.56-2.23,1.51-6.52,1.87-13.44.31-5.92.25-14.99-1.87-26.42Z" style="fill: #e0d480; stroke: #e0d480; stroke-miterlimit: 10;"/>
    <path d="M132.17,270.46c1.47,4.79,3.56,8.43,5.56,11.12,14.05,18.97,42.25,16.99,45.88,16.68-.72,13.32-.33,28.66,2.32,45.42.79,5.01,1.73,9.8,2.78,14.37-3.82.44-9.47.79-16.22,0-15.96-1.87-27.42-8.86-34.76-13.44-4.02-2.51-9.43-6.26-15.29-11.59-.55-5.58-.79-11.8-.46-18.53.89-18.3,5.65-33.33,10.2-44.03Z" style="fill: #e0d480; stroke: #e0d480; stroke-miterlimit: 10;"/>
    <path d="M282.06,361.29c4.15,8.04,8.55,16.23,13.24,24.56,7.26,12.91,14.6,25.11,21.91,36.61-4.46,2.18-9.29,4.23-14.5,6.02-29.47,10.16-56.91,7.44-75.08,3.54-4.7-12.86-8.97-23.22-12.05-30.42,0,0-2.7-6.3-14.83-32.9h0c11.32,1,24.96,1.36,40.32,0,15.93-1.41,29.74-4.3,40.99-7.41Z" style="fill: #e0d480; stroke: #e0d480; stroke-miterlimit: 10;"/>
    <path d="M134.48,406.7c1.47-1.27,6.56,4.49,20.78,13.2,9.08,5.56,22.1,13.41,39,17.38,6.84,1.61,17.22,3.26,30.39,2.32.3,3.67,13.48,28.27,16.42,30.59,9.11,12.67,18.23,25.33,27.34,38-1.24.77-2.47,1.54-3.71,2.32-8.46-1.81-19.93-4.86-32.9-10.2-17.67-7.26-43.14-20.82-66.27-45.42-19.64-20.89-33.87-45.77-31.05-48.2Z" style="fill: #e0d480; stroke: #e0d480; stroke-miterlimit: 10;"/>
    <path d="M268.41,495.66c1.08,4.95,2.16,9.9,3.24,14.85,5.27,1.43,10.84,2.69,16.68,3.71,32.21,5.62,60.83,1.82,82.49-3.71-4.63-8.03-9.27-16.07-13.9-24.1-11.55,3.73-26.32,7.42-43.72,9.24-17.45,1.83-32.7,1.27-44.8,0Z" style="fill: #e0d480; stroke: #e0d480; stroke-miterlimit: 10;"/>
    <path d="M330.45,428.27c9.8,16.11,19.59,32.22,29.39,48.33,9.88-2.98,22.04-7.62,35.05-15.02,16.19-9.21,28.23-19.59,36.57-27.98-7.4-15.06-14.8-30.11-22.21-45.17-6.46,5.4-13.98,10.98-22.64,16.33-20.72,12.78-40.6,19.66-56.17,23.51Z" style="fill: #e0d480; stroke: #e0d480; stroke-miterlimit: 10;"/>
    <path d="M505.92,240.61c-.62,6.51-1.65,13.51-3.27,20.9-4.89,22.31-13.43,40.24-21.33,53.43,2.71,6.54,5.46,13.11,8.27,19.71,4.9,11.52,9.84,22.87,14.8,34.04.31,0,.76-.04,1.3-.14,10.55-2.05,14.27-25.05,16.12-36.51,3.23-19.99,7.51-46.53-6.1-75.11-3.5-7.34-7.25-12.88-9.8-16.33Z" style="fill: #e0d480; stroke: #e0d480; stroke-miterlimit: 10;"/>
    <path d="M501.78,380.59c1.91,4.4,4.22,11.34,3.92,19.81-.49,14.03-7.82,23.81-16.55,35.13-6.24,8.09-16.57,19.62-32.44,30.4-5.59-8.93-11.18-17.85-16.76-26.78,10.11-4.57,17.86-9.66,23.29-13.72,14.24-10.63,22.77-21.81,27.65-28.3,4.84-6.44,8.42-12.22,10.89-16.55Z" style="fill: #e0d480; stroke: #e0d480; stroke-miterlimit: 10;"/>
  </g>
  <g>
    <path d="M293.9,209.52c10.49,13.05,20.97,26.11,31.46,39.16-2.27,2.44-5.64,5.78-10.14,9.27-5.39,4.18-9.74,6.5-17.61,10.66-8.27,4.37-14.82,7.27-20.39,9.73-6.79,2.99-12.53,5.32-16.68,6.95-7.26-15.76-14.52-31.51-21.78-47.27,2.9-.07,6.92-.37,11.59-1.39,7.44-1.63,12.7-4.24,16.22-6.02,7.12-3.6,11.93-7.37,15.5-10.2,5.13-4.06,9.07-7.93,11.85-10.89Z" style="fill: #0054a5; stroke: #0054a5; stroke-miterlimit: 10;"/>
    <path d="M376.39,202.33c-4.22,6.56-9.27,13.62-15.29,20.85-9.37,11.26-18.84,20.27-27.34,27.34,4.31,8.28,9.22,16.98,14.83,25.95,7.57,12.11,15.27,22.91,22.71,32.44,10.04-7.75,17.93-14.89,23.63-20.39,15.94-15.36,20.99-23.85,22.71-26.88,3.25-5.73,5.27-10.8,6.49-14.25-15.91-15.02-31.82-30.05-47.73-45.07Z" style="fill: #0054a5; stroke: #0054a5; stroke-miterlimit: 10;"/>
    <path d="M328.66,252.38c-4,4.6-8.89,9.45-14.83,14.12-19.3,15.16-39.67,20.44-52.37,22.49,2.28,9.05,5.64,19.63,10.66,31.05,5.19,11.8,10.93,21.69,16.22,29.66,8.47-1.56,18.31-4.11,28.87-8.34,21.95-8.8,37.72-21.16,47.76-30.59l-36.3-58.39Z" style="fill: #0054a5; stroke: #0054a5; stroke-miterlimit: 10;"/>
    <path d="M257.75,294.52s3.22,8.36,3.71,14.4c.86,10.62,5.15,25.42,20.59,43.1,0,0-10.61,5.59-12.37,6.49-12.81,6.55-29.63,6.52-42.52,6.49-7.68-.02-18.35-.53-31.05-2.74-2.47-21.49-4.94-42.97-7.41-64.46,8.31,2.63,19.96,5.02,33.37,3.24,17.83-2.36,35.68-6.52,35.68-6.52Z" style="fill: #0054a5; stroke: #0054a5; stroke-miterlimit: 10;"/>
    <path d="M447.76,180.09c.45,6.03.54,12.71,0,19.93-1.56,20.91-7.77,37.82-13.44,49.59.02.02.12.18.14.21,0,0,3.36,5.02,6.77,9.99,2.43,3.54,17.34,24.32,38.51,52.37,6.6-10.08,10.32-19.42,12.51-26.88,2.53-8.61,3.27-15.74,4.63-29.66.89-9.07,1.57-18.99,1.85-29.66-4.58-6.39-10.37-13.47-17.61-20.62-11.82-11.67-23.7-19.75-33.37-25.26Z" style="fill: #0054a5; stroke: #0054a5; stroke-miterlimit: 10;"/>
    <path d="M420.88,270.46c3.09-6.02,6.18-12.05,9.27-18.07,16.07,22.09,32.13,44.18,48.2,66.27-4,6.58-9.01,13.69-15.29,20.85-17.59,20.06-37.25,31.53-51.27,38-5.23-9.22-10.54-18.49-15.93-27.81-6.79-11.73-13.59-23.32-20.39-34.76,10.38-7.72,21.71-17.46,32.9-29.66,4.61-5.03,8.77-10,12.51-14.83Z" style="fill: #0054a5; stroke: #0054a5; stroke-miterlimit: 10;"/>
    <path d="M368.51,314.95c12.51,22.55,25.03,45.11,37.54,67.66-5.18,4.35-10.95,8.74-17.38,12.98-22.89,15.11-45.5,22.79-63.31,26.88-12.34-21.78-24.68-43.56-37.02-65.34,9.89-2.24,21.65-5.79,34.29-11.59,20.54-9.42,35.7-21.21,45.88-30.59Z" style="fill: #0054a5; stroke: #0054a5; stroke-miterlimit: 10;"/>
    <path d="M194.27,368.7c2.92,7.66,6.15,15.55,9.73,23.63,6.65,15.01,13.64,28.76,20.65,41.24-5.35.1-12.63-.14-21.12-1.56-16.9-2.82-28.84-8.69-35.68-12.12-16.68-8.36-29.35-18.81-38.46-28.03-1.7-17.61-3.4-35.22-5.1-52.83,8.01,5.69,18.33,12.03,30.97,17.61,14.77,6.52,28.28,10.06,39,12.05Z" style="fill: #0054a5; stroke: #0054a5; stroke-miterlimit: 10;"/>
    <path d="M229.87,438.28l34.18,52.9c11.11,1.15,24.79,1.61,40.27,0,21.51-2.24,39.18-7.72,52.03-12.84l-34.61-50.07c-6.26,2.68-13.23,5.19-20.9,7.26-28.31,7.63-53.55,5.83-70.97,2.75Z" style="fill: #0054a5; stroke: #0054a5; stroke-miterlimit: 10;"/>
    <path d="M414.7,386.25c7.69,16.43,15.38,32.85,23.08,49.28,7.31-4.05,15.31-9.16,23.51-15.62,17.5-13.8,29.5-28.72,37.45-40.62-.58-6.75-1.16-13.5-1.75-20.25-5.88-12.19-11.76-24.38-17.63-36.57-2.97,5.06-7.45,12.07-13.72,19.81-11.19,13.83-22.08,22.64-30.26,29.17-5.15,4.11-12.08,9.3-20.68,14.8Z" style="fill: #0054a5; stroke: #0054a5; stroke-miterlimit: 10;"/>
    <path d="M361.8,481.82c6.02,8.93,12.05,17.85,18.07,26.78,7.63-1.16,16.56-3.23,26.18-6.9,21.44-8.19,36.33-20.59,45.22-29.45-4.86-10.59-9.72-21.19-14.59-31.78-3.01,2.65-7.28,6.25-12.63,10.23-13.77,10.25-26.3,16.8-34.61,20.68-7.14,3.33-16.44,7.14-27.65,10.45Z" style="fill: #0054a5; stroke: #0054a5; stroke-miterlimit: 10;"/>
    <path d="M160.9,221.08c1.07,1.6,2.34,3.26,3.84,4.9,6.78,7.44,14.88,10.86,20.25,12.49l.44,54.56c-4.3.92-10.8,1.67-18.29,0-18.28-4.09-27.51-19.32-29.39-22.58,1.37-5.81,3.31-12.31,6.1-19.22,5.12-12.68,11.47-22.72,17.06-30.16Z" style="fill: #0054a5; stroke: #0054a5; stroke-miterlimit: 10;"/>
    <path d="M312.32,132.3c2.67-.11,5.34-.05,8,.04,17.46.6,35.38,2.63,50.78,10.88,4,2.14,10.61,5.88,10.42,11.08-.11,3.02-.22,6.03-.33,9.05-.43,11.68-.85,23.37-1.28,35.05h-13.31c-14.13-7.04-28.25-14.08-42.38-21.12,1.28-7.45,1.33-13.65,1.13-17.93-.37-7.95-.69-13.29-4.17-18.66-2.23-3.44-5.76-5.81-8.87-8.38Z" style="fill: #0054a5; stroke: #0054a5; stroke-miterlimit: 10;"/>
  </g>
</svg>