<?xml version="1.0" encoding="UTF-8"?>
<svg id="Layer_1" xmlns="http://www.w3.org/2000/svg" version="1.1" viewBox="0 0 384 384">
  <!-- Generator: Adobe Illustrator 29.7.1, SVG Export Plug-In . SVG Version: 2.1.1 Build 8)  -->
  <defs>
    <style>
      .st0 {
        fill: #9a0e0e;
        stroke: #000;
        stroke-miterlimit: 10;
      }
    </style>
  </defs>
  <path class="st0" d="M384,33.7v5.25l-93.11,303.26c-2.99,4.42-7.63,5.83-12.85,4.81l-106.28-77.83-42.13,84.25c-6.22,8.95-19.75,5.77-20.88-5.12l-.36-124.14L8.5,185.33c-4.33-1.56-6.75-4.2-8.5-8.38v-5.25l3.73-5.65C125.19,117.8,248.02,72.2,370.19,25.52c7.03-.9,11.15,1.84,13.81,8.18ZM292.5,79.46L43.5,174.32l72.75,28.54,3.01.02,173.23-123.43ZM347.24,80.2l-161.85,170.64,88.75,66.36,73.1-236.99ZM131.25,222.32v76.88l27.75-53.62,123-130.12-150.75,106.87Z"/>
</svg>